<?xml version="1.0" standalone="no"?>
<!DOCTYPE svg PUBLIC "-//W3C//DTD SVG 1.1//EN" 
"http://www.w3.org/Graphics/SVG/1.1/DTD/svg11.dtd"> 
<svg
  xmlns="http://www.w3.org/2000/svg"
  version="1.1"
  width="11.7in" height="8.267in" viewBox="0 0 117000 82670 "
>
  <title>SVG Picture created as rgbcp-SilkS_Back.svg </title>
  <desc>Picture generated by wxSVG v0101 </desc>
  <g style="fill:black; stroke:black; stroke-width:1">
</g>
<g style="fill:#000000; fill-opacity:0.0; 
  stroke:#000000; stroke-linecap:round; stroke-linejoin:round; stroke-opacity:1.0; stroke-opacity:1.0; stroke-width:150" 
   transform="translate(0 0) scale(1 1)">
<ellipse cx="36275" cy="38075" rx="1250" ry="1250"  /> 
<ellipse cx="29275" cy="33325" rx="1250" ry="1250"  /> 
<ellipse cx="56975" cy="47325" rx="1250" ry="1250"  /> 
<ellipse cx="53975" cy="40325" rx="1250" ry="1250"  /> 
<ellipse cx="72400" cy="37800" rx="1250" ry="1250"  /> 
<ellipse cx="72400" cy="42300" rx="1250" ry="1250"  /> 
<ellipse cx="72400" cy="33300" rx="1250" ry="1250"  /> 
<ellipse cx="56975" cy="33325" rx="1250" ry="1250"  /> 
<ellipse cx="32775" cy="38075" rx="1250" ry="1250"  /> 
<ellipse cx="72400" cy="47300" rx="1250" ry="1250"  /> 
<ellipse cx="49475" cy="40325" rx="1250" ry="1250"  /> 
<ellipse cx="36275" cy="47325" rx="1274" ry="1274"  /> 
<ellipse cx="67900" cy="40050" rx="1274" ry="1274"  /> 
<ellipse cx="46475" cy="33325" rx="1250" ry="1250"  /> 
<ellipse cx="39775" cy="33325" rx="1250" ry="1250"  /> 
<ellipse cx="63400" cy="33300" rx="1250" ry="1250"  /> 
<ellipse cx="56975" cy="43325" rx="1250" ry="1250"  /> 
<ellipse cx="29275" cy="38075" rx="1250" ry="1250"  /> 
<ellipse cx="65400" cy="36800" rx="1250" ry="1250"  /> 
<ellipse cx="46475" cy="47325" rx="1250" ry="1250"  /> 
<ellipse cx="30275" cy="42575" rx="1250" ry="1250"  /> 
<ellipse cx="64150" cy="42300" rx="1250" ry="1250"  /> 
<ellipse cx="46475" cy="43325" rx="1250" ry="1250"  /> 
<ellipse cx="39775" cy="38075" rx="1274" ry="1274"  /> 
<ellipse cx="64900" cy="46550" rx="1274" ry="1274"  /> 
<ellipse cx="46475" cy="37325" rx="1250" ry="1250"  /> 
<ellipse cx="38775" cy="42575" rx="1274" ry="1274"  /> 
<ellipse cx="68650" cy="47300" rx="1250" ry="1250"  /> 
<ellipse cx="56975" cy="37325" rx="1250" ry="1250"  /> 
<ellipse cx="32775" cy="47325" rx="1250" ry="1250"  /> 
</g>
<g style="fill:#000000; fill-opacity:0.0; 
  stroke:#000000; stroke-linecap:round; stroke-linejoin:round; stroke-opacity:1.0; stroke-opacity:1.0; stroke-width:39" 
   transform="translate(0 0) scale(1 1)">
<ellipse cx="85789" cy="24534" rx="197" ry="197"  /> 
</g>
<g style="fill:#FFFF00; fill-opacity:1.0; 
  stroke:#808000; stroke-linecap:round; stroke-linejoin:round; stroke-opacity:1.0; stroke-opacity:1.0; stroke-width:0" 
   transform="translate(0 0) scale(1 1)">
<ellipse cx="85789" cy="24534" rx="157" ry="157"  /> 
</g>
<g style="fill:#000000; fill-opacity:0.0; 
  stroke:#000000; stroke-linecap:round; stroke-linejoin:round; stroke-opacity:1.0; stroke-opacity:1.0; stroke-width:39" 
   transform="translate(0 0) scale(1 1)">
<ellipse cx="85789" cy="26266" rx="197" ry="197"  /> 
</g>
<g style="fill:#FFFF00; fill-opacity:1.0; 
  stroke:#808000; stroke-linecap:round; stroke-linejoin:round; stroke-opacity:1.0; stroke-opacity:1.0; stroke-width:0" 
   transform="translate(0 0) scale(1 1)">
<ellipse cx="85789" cy="26266" rx="157" ry="157"  /> 
</g>
<g style="fill:#000000; fill-opacity:0.0; 
  stroke:#000000; stroke-linecap:round; stroke-linejoin:round; stroke-opacity:1.0; stroke-opacity:1.0; stroke-width:39" 
   transform="translate(0 0) scale(1 1)">
<ellipse cx="10000" cy="31514" rx="393" ry="393"  /> 
<ellipse cx="10000" cy="33286" rx="393" ry="393"  /> 
<path d="M11377 31415 L10591 31415" /> 
<path d="M10591 31415 L10591 30629" /> 
<path d="M10591 30629 L11377 30629" /> 
<path d="M11377 31415 L11377 30629" /> 
</g>
<g style="fill:#FFFF00; fill-opacity:1.0; 
  stroke:#808000; stroke-linecap:round; stroke-linejoin:round; stroke-opacity:1.0; stroke-opacity:1.0; stroke-width:0" 
   transform="translate(0 0) scale(1 1)">
<ellipse cx="10984" cy="31022" rx="197" ry="197"  /> 
</g>
<g style="fill:#000000; fill-opacity:0.0; 
  stroke:#000000; stroke-linecap:round; stroke-linejoin:round; stroke-opacity:1.0; stroke-opacity:1.0; stroke-width:39" 
   transform="translate(0 0) scale(1 1)">
<path d="M11377 34171 L10591 34171" /> 
<path d="M10591 34171 L10591 33385" /> 
<path d="M10591 33385 L11377 33385" /> 
<path d="M11377 34171 L11377 33385" /> 
</g>
<g style="fill:#FFFF00; fill-opacity:1.0; 
  stroke:#808000; stroke-linecap:round; stroke-linejoin:round; stroke-opacity:1.0; stroke-opacity:1.0; stroke-width:0" 
   transform="translate(0 0) scale(1 1)">
<ellipse cx="10984" cy="33778" rx="197" ry="197"  /> 
</g>
<g style="fill:#000000; fill-opacity:0.0; 
  stroke:#000000; stroke-linecap:round; stroke-linejoin:round; stroke-opacity:1.0; stroke-opacity:1.0; stroke-width:39" 
   transform="translate(0 0) scale(1 1)">
<ellipse cx="10000" cy="42664" rx="393" ry="393"  /> 
<ellipse cx="10000" cy="44436" rx="393" ry="393"  /> 
<path d="M11377 42565 L10591 42565" /> 
<path d="M10591 42565 L10591 41779" /> 
<path d="M10591 41779 L11377 41779" /> 
<path d="M11377 42565 L11377 41779" /> 
</g>
<g style="fill:#FFFF00; fill-opacity:1.0; 
  stroke:#808000; stroke-linecap:round; stroke-linejoin:round; stroke-opacity:1.0; stroke-opacity:1.0; stroke-width:0" 
   transform="translate(0 0) scale(1 1)">
<ellipse cx="10984" cy="42172" rx="197" ry="197"  /> 
</g>
<g style="fill:#000000; fill-opacity:0.0; 
  stroke:#000000; stroke-linecap:round; stroke-linejoin:round; stroke-opacity:1.0; stroke-opacity:1.0; stroke-width:39" 
   transform="translate(0 0) scale(1 1)">
<path d="M11377 45321 L10591 45321" /> 
<path d="M10591 45321 L10591 44535" /> 
<path d="M10591 44535 L11377 44535" /> 
<path d="M11377 45321 L11377 44535" /> 
</g>
<g style="fill:#FFFF00; fill-opacity:1.0; 
  stroke:#808000; stroke-linecap:round; stroke-linejoin:round; stroke-opacity:1.0; stroke-opacity:1.0; stroke-width:0" 
   transform="translate(0 0) scale(1 1)">
<ellipse cx="10984" cy="44928" rx="197" ry="197"  /> 
</g>
<g style="fill:#000000; fill-opacity:0.0; 
  stroke:#000000; stroke-linecap:round; stroke-linejoin:round; stroke-opacity:1.0; stroke-opacity:1.0; stroke-width:39" 
   transform="translate(0 0) scale(1 1)">
<ellipse cx="10000" cy="50164" rx="393" ry="393"  /> 
<ellipse cx="10000" cy="51936" rx="393" ry="393"  /> 
<path d="M11377 50065 L10591 50065" /> 
<path d="M10591 50065 L10591 49279" /> 
<path d="M10591 49279 L11377 49279" /> 
<path d="M11377 50065 L11377 49279" /> 
</g>
<g style="fill:#FFFF00; fill-opacity:1.0; 
  stroke:#808000; stroke-linecap:round; stroke-linejoin:round; stroke-opacity:1.0; stroke-opacity:1.0; stroke-width:0" 
   transform="translate(0 0) scale(1 1)">
<ellipse cx="10984" cy="49672" rx="197" ry="197"  /> 
</g>
<g style="fill:#000000; fill-opacity:0.0; 
  stroke:#000000; stroke-linecap:round; stroke-linejoin:round; stroke-opacity:1.0; stroke-opacity:1.0; stroke-width:39" 
   transform="translate(0 0) scale(1 1)">
<path d="M11377 52821 L10591 52821" /> 
<path d="M10591 52821 L10591 52035" /> 
<path d="M10591 52035 L11377 52035" /> 
<path d="M11377 52821 L11377 52035" /> 
</g>
<g style="fill:#FFFF00; fill-opacity:1.0; 
  stroke:#808000; stroke-linecap:round; stroke-linejoin:round; stroke-opacity:1.0; stroke-opacity:1.0; stroke-width:0" 
   transform="translate(0 0) scale(1 1)">
<ellipse cx="10984" cy="52428" rx="197" ry="197"  /> 
</g>
<g style="fill:#000000; fill-opacity:0.0; 
  stroke:#000000; stroke-linecap:round; stroke-linejoin:round; stroke-opacity:1.0; stroke-opacity:1.0; stroke-width:39" 
   transform="translate(0 0) scale(1 1)">
<ellipse cx="86300" cy="44436" rx="393" ry="393"  /> 
<ellipse cx="86300" cy="42664" rx="393" ry="393"  /> 
<path d="M84923 44535 L85709 44535" /> 
<path d="M85709 44535 L85709 45321" /> 
<path d="M85709 45321 L84923 45321" /> 
<path d="M84923 44535 L84923 45321" /> 
</g>
<g style="fill:#FFFF00; fill-opacity:1.0; 
  stroke:#808000; stroke-linecap:round; stroke-linejoin:round; stroke-opacity:1.0; stroke-opacity:1.0; stroke-width:0" 
   transform="translate(0 0) scale(1 1)">
<ellipse cx="85316" cy="44928" rx="197" ry="197"  /> 
</g>
<g style="fill:#000000; fill-opacity:0.0; 
  stroke:#000000; stroke-linecap:round; stroke-linejoin:round; stroke-opacity:1.0; stroke-opacity:1.0; stroke-width:39" 
   transform="translate(0 0) scale(1 1)">
<path d="M84923 41779 L85709 41779" /> 
<path d="M85709 41779 L85709 42565" /> 
<path d="M85709 42565 L84923 42565" /> 
<path d="M84923 41779 L84923 42565" /> 
</g>
<g style="fill:#FFFF00; fill-opacity:1.0; 
  stroke:#808000; stroke-linecap:round; stroke-linejoin:round; stroke-opacity:1.0; stroke-opacity:1.0; stroke-width:0" 
   transform="translate(0 0) scale(1 1)">
<ellipse cx="85316" cy="42172" rx="197" ry="197"  /> 
</g>
<g style="fill:#000000; fill-opacity:0.0; 
  stroke:#000000; stroke-linecap:round; stroke-linejoin:round; stroke-opacity:1.0; stroke-opacity:1.0; stroke-width:39" 
   transform="translate(0 0) scale(1 1)">
<ellipse cx="86300" cy="51936" rx="393" ry="393"  /> 
<ellipse cx="86300" cy="50164" rx="393" ry="393"  /> 
<path d="M84923 52035 L85709 52035" /> 
<path d="M85709 52035 L85709 52821" /> 
<path d="M85709 52821 L84923 52821" /> 
<path d="M84923 52035 L84923 52821" /> 
</g>
<g style="fill:#FFFF00; fill-opacity:1.0; 
  stroke:#808000; stroke-linecap:round; stroke-linejoin:round; stroke-opacity:1.0; stroke-opacity:1.0; stroke-width:0" 
   transform="translate(0 0) scale(1 1)">
<ellipse cx="85316" cy="52428" rx="197" ry="197"  /> 
</g>
<g style="fill:#000000; fill-opacity:0.0; 
  stroke:#000000; stroke-linecap:round; stroke-linejoin:round; stroke-opacity:1.0; stroke-opacity:1.0; stroke-width:39" 
   transform="translate(0 0) scale(1 1)">
<path d="M84923 49279 L85709 49279" /> 
<path d="M85709 49279 L85709 50065" /> 
<path d="M85709 50065 L84923 50065" /> 
<path d="M84923 49279 L84923 50065" /> 
</g>
<g style="fill:#FFFF00; fill-opacity:1.0; 
  stroke:#808000; stroke-linecap:round; stroke-linejoin:round; stroke-opacity:1.0; stroke-opacity:1.0; stroke-width:0" 
   transform="translate(0 0) scale(1 1)">
<ellipse cx="85316" cy="49672" rx="197" ry="197"  /> 
</g>
<g style="fill:#000000; fill-opacity:0.0; 
  stroke:#000000; stroke-linecap:round; stroke-linejoin:round; stroke-opacity:1.0; stroke-opacity:1.0; stroke-width:39" 
   transform="translate(0 0) scale(1 1)">
<ellipse cx="10000" cy="24114" rx="393" ry="393"  /> 
<ellipse cx="10000" cy="25886" rx="393" ry="393"  /> 
<path d="M11377 24015 L10591 24015" /> 
<path d="M10591 24015 L10591 23229" /> 
<path d="M10591 23229 L11377 23229" /> 
<path d="M11377 24015 L11377 23229" /> 
</g>
<g style="fill:#FFFF00; fill-opacity:1.0; 
  stroke:#808000; stroke-linecap:round; stroke-linejoin:round; stroke-opacity:1.0; stroke-opacity:1.0; stroke-width:0" 
   transform="translate(0 0) scale(1 1)">
<ellipse cx="10984" cy="23622" rx="197" ry="197"  /> 
</g>
<g style="fill:#000000; fill-opacity:0.0; 
  stroke:#000000; stroke-linecap:round; stroke-linejoin:round; stroke-opacity:1.0; stroke-opacity:1.0; stroke-width:39" 
   transform="translate(0 0) scale(1 1)">
<path d="M11377 26771 L10591 26771" /> 
<path d="M10591 26771 L10591 25985" /> 
<path d="M10591 25985 L11377 25985" /> 
<path d="M11377 26771 L11377 25985" /> 
</g>
<g style="fill:#FFFF00; fill-opacity:1.0; 
  stroke:#808000; stroke-linecap:round; stroke-linejoin:round; stroke-opacity:1.0; stroke-opacity:1.0; stroke-width:0" 
   transform="translate(0 0) scale(1 1)">
<ellipse cx="10984" cy="26378" rx="197" ry="197"  /> 
</g>
<g style="fill:#000000; fill-opacity:0.0; 
  stroke:#000000; stroke-linecap:round; stroke-linejoin:round; stroke-opacity:1.0; stroke-opacity:1.0; stroke-width:39" 
   transform="translate(0 0) scale(1 1)">
<ellipse cx="86765" cy="35702" rx="590" ry="590"  /> 
</g>
<g style="fill:#FFFF00; fill-opacity:1.0; 
  stroke:#808000; stroke-linecap:round; stroke-linejoin:round; stroke-opacity:1.0; stroke-opacity:1.0; stroke-width:0" 
   transform="translate(0 0) scale(1 1)">
<ellipse cx="86765" cy="35702" rx="236" ry="236"  /> 
</g>
<g style="fill:#000000; fill-opacity:0.0; 
  stroke:#000000; stroke-linecap:round; stroke-linejoin:round; stroke-opacity:1.0; stroke-opacity:1.0; stroke-width:39" 
   transform="translate(0 0) scale(1 1)">
<ellipse cx="86765" cy="30348" rx="590" ry="590"  /> 
</g>
<g style="fill:#FFFF00; fill-opacity:1.0; 
  stroke:#808000; stroke-linecap:round; stroke-linejoin:round; stroke-opacity:1.0; stroke-opacity:1.0; stroke-width:0" 
   transform="translate(0 0) scale(1 1)">
<ellipse cx="86765" cy="30348" rx="236" ry="236"  /> 
</g>
<g style="fill:#000000; fill-opacity:0.0; 
  stroke:#000000; stroke-linecap:round; stroke-linejoin:round; stroke-opacity:1.0; stroke-opacity:1.0; stroke-width:39" 
   transform="translate(0 0) scale(1 1)">
<ellipse cx="82985" cy="34836" rx="689" ry="689"  /> 
<ellipse cx="82985" cy="33025" rx="689" ry="689"  /> 
<ellipse cx="82985" cy="31214" rx="689" ry="689"  /> 
<path d="M29811 38665 L29811 37485" /> 
<path d="M29811 37485 L30223 37485" /> 
<path d="M30223 37485 L30223 38665" /> 
<path d="M29811 38665 L30223 38665" /> 
<path d="M29319 38665 L29319 37485" /> 
<path d="M29319 37485 L29731 37485" /> 
<path d="M29731 37485 L29731 38665" /> 
<path d="M29319 38665 L29731 38665" /> 
<path d="M28827 38665 L28827 37485" /> 
<path d="M28827 37485 L29239 37485" /> 
<path d="M29239 37485 L29239 38665" /> 
<path d="M28827 38665 L29239 38665" /> 
<path d="M28335 38665 L28335 37485" /> 
<path d="M28335 37485 L28747 37485" /> 
<path d="M28747 37485 L28747 38665" /> 
<path d="M28335 38665 L28747 38665" /> 
<path d="M40311 38665 L40311 37485" /> 
<path d="M40311 37485 L40723 37485" /> 
<path d="M40723 37485 L40723 38665" /> 
<path d="M40311 38665 L40723 38665" /> 
<path d="M39819 38665 L39819 37485" /> 
<path d="M39819 37485 L40231 37485" /> 
<path d="M40231 37485 L40231 38665" /> 
<path d="M39819 38665 L40231 38665" /> 
<path d="M39327 38665 L39327 37485" /> 
<path d="M39327 37485 L39739 37485" /> 
<path d="M39739 37485 L39739 38665" /> 
<path d="M39327 38665 L39739 38665" /> 
<path d="M38835 38665 L38835 37485" /> 
<path d="M38835 37485 L39247 37485" /> 
<path d="M39247 37485 L39247 38665" /> 
<path d="M38835 38665 L39247 38665" /> 
<path d="M47011 37915 L47011 36735" /> 
<path d="M47011 36735 L47423 36735" /> 
<path d="M47423 36735 L47423 37915" /> 
<path d="M47011 37915 L47423 37915" /> 
<path d="M46519 37915 L46519 36735" /> 
<path d="M46519 36735 L46931 36735" /> 
<path d="M46931 36735 L46931 37915" /> 
<path d="M46519 37915 L46931 37915" /> 
<path d="M46027 37915 L46027 36735" /> 
<path d="M46027 36735 L46439 36735" /> 
<path d="M46439 36735 L46439 37915" /> 
<path d="M46027 37915 L46439 37915" /> 
<path d="M45535 37915 L45535 36735" /> 
<path d="M45535 36735 L45947 36735" /> 
<path d="M45947 36735 L45947 37915" /> 
<path d="M45535 37915 L45947 37915" /> 
<path d="M36811 38665 L36811 37485" /> 
<path d="M36811 37485 L37223 37485" /> 
<path d="M37223 37485 L37223 38665" /> 
<path d="M36811 38665 L37223 38665" /> 
<path d="M36319 38665 L36319 37485" /> 
<path d="M36319 37485 L36731 37485" /> 
<path d="M36731 37485 L36731 38665" /> 
<path d="M36319 38665 L36731 38665" /> 
<path d="M35827 38665 L35827 37485" /> 
<path d="M35827 37485 L36239 37485" /> 
<path d="M36239 37485 L36239 38665" /> 
<path d="M35827 38665 L36239 38665" /> 
<path d="M35335 38665 L35335 37485" /> 
<path d="M35335 37485 L35747 37485" /> 
<path d="M35747 37485 L35747 38665" /> 
<path d="M35335 38665 L35747 38665" /> 
<path d="M68436 40640 L68436 39460" /> 
<path d="M68436 39460 L68848 39460" /> 
<path d="M68848 39460 L68848 40640" /> 
<path d="M68436 40640 L68848 40640" /> 
<path d="M67944 40640 L67944 39460" /> 
<path d="M67944 39460 L68356 39460" /> 
<path d="M68356 39460 L68356 40640" /> 
<path d="M67944 40640 L68356 40640" /> 
<path d="M67452 40640 L67452 39460" /> 
<path d="M67452 39460 L67864 39460" /> 
<path d="M67864 39460 L67864 40640" /> 
<path d="M67452 40640 L67864 40640" /> 
<path d="M66960 40640 L66960 39460" /> 
<path d="M66960 39460 L67372 39460" /> 
<path d="M67372 39460 L67372 40640" /> 
<path d="M66960 40640 L67372 40640" /> 
<path d="M54511 40915 L54511 39735" /> 
<path d="M54511 39735 L54923 39735" /> 
<path d="M54923 39735 L54923 40915" /> 
<path d="M54511 40915 L54923 40915" /> 
<path d="M54019 40915 L54019 39735" /> 
<path d="M54019 39735 L54431 39735" /> 
<path d="M54431 39735 L54431 40915" /> 
<path d="M54019 40915 L54431 40915" /> 
<path d="M53527 40915 L53527 39735" /> 
<path d="M53527 39735 L53939 39735" /> 
<path d="M53939 39735 L53939 40915" /> 
<path d="M53527 40915 L53939 40915" /> 
<path d="M53035 40915 L53035 39735" /> 
<path d="M53035 39735 L53447 39735" /> 
<path d="M53447 39735 L53447 40915" /> 
<path d="M53035 40915 L53447 40915" /> 
<path d="M33311 38665 L33311 37485" /> 
<path d="M33311 37485 L33723 37485" /> 
<path d="M33723 37485 L33723 38665" /> 
<path d="M33311 38665 L33723 38665" /> 
<path d="M32819 38665 L32819 37485" /> 
<path d="M32819 37485 L33231 37485" /> 
<path d="M33231 37485 L33231 38665" /> 
<path d="M32819 38665 L33231 38665" /> 
<path d="M32327 38665 L32327 37485" /> 
<path d="M32327 37485 L32739 37485" /> 
<path d="M32739 37485 L32739 38665" /> 
<path d="M32327 38665 L32739 38665" /> 
<path d="M31835 38665 L31835 37485" /> 
<path d="M31835 37485 L32247 37485" /> 
<path d="M32247 37485 L32247 38665" /> 
<path d="M31835 38665 L32247 38665" /> 
<path d="M72936 42890 L72936 41710" /> 
<path d="M72936 41710 L73348 41710" /> 
<path d="M73348 41710 L73348 42890" /> 
<path d="M72936 42890 L73348 42890" /> 
<path d="M72444 42890 L72444 41710" /> 
<path d="M72444 41710 L72856 41710" /> 
<path d="M72856 41710 L72856 42890" /> 
<path d="M72444 42890 L72856 42890" /> 
<path d="M71952 42890 L71952 41710" /> 
<path d="M71952 41710 L72364 41710" /> 
<path d="M72364 41710 L72364 42890" /> 
<path d="M71952 42890 L72364 42890" /> 
<path d="M71460 42890 L71460 41710" /> 
<path d="M71460 41710 L71872 41710" /> 
<path d="M71872 41710 L71872 42890" /> 
<path d="M71460 42890 L71872 42890" /> 
<path d="M50011 40915 L50011 39735" /> 
<path d="M50011 39735 L50423 39735" /> 
<path d="M50423 39735 L50423 40915" /> 
<path d="M50011 40915 L50423 40915" /> 
<path d="M49519 40915 L49519 39735" /> 
<path d="M49519 39735 L49931 39735" /> 
<path d="M49931 39735 L49931 40915" /> 
<path d="M49519 40915 L49931 40915" /> 
<path d="M49027 40915 L49027 39735" /> 
<path d="M49027 39735 L49439 39735" /> 
<path d="M49439 39735 L49439 40915" /> 
<path d="M49027 40915 L49439 40915" /> 
<path d="M48535 40915 L48535 39735" /> 
<path d="M48535 39735 L48947 39735" /> 
<path d="M48947 39735 L48947 40915" /> 
<path d="M48535 40915 L48947 40915" /> 
<path d="M65936 37390 L65936 36210" /> 
<path d="M65936 36210 L66348 36210" /> 
<path d="M66348 36210 L66348 37390" /> 
<path d="M65936 37390 L66348 37390" /> 
<path d="M65444 37390 L65444 36210" /> 
<path d="M65444 36210 L65856 36210" /> 
<path d="M65856 36210 L65856 37390" /> 
<path d="M65444 37390 L65856 37390" /> 
<path d="M64952 37390 L64952 36210" /> 
<path d="M64952 36210 L65364 36210" /> 
<path d="M65364 36210 L65364 37390" /> 
<path d="M64952 37390 L65364 37390" /> 
<path d="M64460 37390 L64460 36210" /> 
<path d="M64460 36210 L64872 36210" /> 
<path d="M64872 36210 L64872 37390" /> 
<path d="M64460 37390 L64872 37390" /> 
<path d="M64686 42890 L64686 41710" /> 
<path d="M64686 41710 L65098 41710" /> 
<path d="M65098 41710 L65098 42890" /> 
<path d="M64686 42890 L65098 42890" /> 
<path d="M64194 42890 L64194 41710" /> 
<path d="M64194 41710 L64606 41710" /> 
<path d="M64606 41710 L64606 42890" /> 
<path d="M64194 42890 L64606 42890" /> 
<path d="M63702 42890 L63702 41710" /> 
<path d="M63702 41710 L64114 41710" /> 
<path d="M64114 41710 L64114 42890" /> 
<path d="M63702 42890 L64114 42890" /> 
<path d="M63210 42890 L63210 41710" /> 
<path d="M63210 41710 L63622 41710" /> 
<path d="M63622 41710 L63622 42890" /> 
<path d="M63210 42890 L63622 42890" /> 
<path d="M57511 43915 L57511 42735" /> 
<path d="M57511 42735 L57923 42735" /> 
<path d="M57923 42735 L57923 43915" /> 
<path d="M57511 43915 L57923 43915" /> 
<path d="M57019 43915 L57019 42735" /> 
<path d="M57019 42735 L57431 42735" /> 
<path d="M57431 42735 L57431 43915" /> 
<path d="M57019 43915 L57431 43915" /> 
<path d="M56527 43915 L56527 42735" /> 
<path d="M56527 42735 L56939 42735" /> 
<path d="M56939 42735 L56939 43915" /> 
<path d="M56527 43915 L56939 43915" /> 
<path d="M56035 43915 L56035 42735" /> 
<path d="M56035 42735 L56447 42735" /> 
<path d="M56447 42735 L56447 43915" /> 
<path d="M56035 43915 L56447 43915" /> 
<path d="M39311 43165 L39311 41985" /> 
<path d="M39311 41985 L39723 41985" /> 
<path d="M39723 41985 L39723 43165" /> 
<path d="M39311 43165 L39723 43165" /> 
<path d="M38819 43165 L38819 41985" /> 
<path d="M38819 41985 L39231 41985" /> 
<path d="M39231 41985 L39231 43165" /> 
<path d="M38819 43165 L39231 43165" /> 
<path d="M38327 43165 L38327 41985" /> 
<path d="M38327 41985 L38739 41985" /> 
<path d="M38739 41985 L38739 43165" /> 
<path d="M38327 43165 L38739 43165" /> 
<path d="M37835 43165 L37835 41985" /> 
<path d="M37835 41985 L38247 41985" /> 
<path d="M38247 41985 L38247 43165" /> 
<path d="M37835 43165 L38247 43165" /> 
<path d="M72936 47890 L72936 46710" /> 
<path d="M72936 46710 L73348 46710" /> 
<path d="M73348 46710 L73348 47890" /> 
<path d="M72936 47890 L73348 47890" /> 
<path d="M72444 47890 L72444 46710" /> 
<path d="M72444 46710 L72856 46710" /> 
<path d="M72856 46710 L72856 47890" /> 
<path d="M72444 47890 L72856 47890" /> 
<path d="M71952 47890 L71952 46710" /> 
<path d="M71952 46710 L72364 46710" /> 
<path d="M72364 46710 L72364 47890" /> 
<path d="M71952 47890 L72364 47890" /> 
<path d="M71460 47890 L71460 46710" /> 
<path d="M71460 46710 L71872 46710" /> 
<path d="M71872 46710 L71872 47890" /> 
<path d="M71460 47890 L71872 47890" /> 
<path d="M47011 43915 L47011 42735" /> 
<path d="M47011 42735 L47423 42735" /> 
<path d="M47423 42735 L47423 43915" /> 
<path d="M47011 43915 L47423 43915" /> 
<path d="M46519 43915 L46519 42735" /> 
<path d="M46519 42735 L46931 42735" /> 
<path d="M46931 42735 L46931 43915" /> 
<path d="M46519 43915 L46931 43915" /> 
<path d="M46027 43915 L46027 42735" /> 
<path d="M46027 42735 L46439 42735" /> 
<path d="M46439 42735 L46439 43915" /> 
<path d="M46027 43915 L46439 43915" /> 
<path d="M45535 43915 L45535 42735" /> 
<path d="M45535 42735 L45947 42735" /> 
<path d="M45947 42735 L45947 43915" /> 
<path d="M45535 43915 L45947 43915" /> 
<path d="M30811 43165 L30811 41985" /> 
<path d="M30811 41985 L31223 41985" /> 
<path d="M31223 41985 L31223 43165" /> 
<path d="M30811 43165 L31223 43165" /> 
<path d="M30319 43165 L30319 41985" /> 
<path d="M30319 41985 L30731 41985" /> 
<path d="M30731 41985 L30731 43165" /> 
<path d="M30319 43165 L30731 43165" /> 
<path d="M29827 43165 L29827 41985" /> 
<path d="M29827 41985 L30239 41985" /> 
<path d="M30239 41985 L30239 43165" /> 
<path d="M29827 43165 L30239 43165" /> 
<path d="M29335 43165 L29335 41985" /> 
<path d="M29335 41985 L29747 41985" /> 
<path d="M29747 41985 L29747 43165" /> 
<path d="M29335 43165 L29747 43165" /> 
<path d="M69186 47890 L69186 46710" /> 
<path d="M69186 46710 L69598 46710" /> 
<path d="M69598 46710 L69598 47890" /> 
<path d="M69186 47890 L69598 47890" /> 
<path d="M68694 47890 L68694 46710" /> 
<path d="M68694 46710 L69106 46710" /> 
<path d="M69106 46710 L69106 47890" /> 
<path d="M68694 47890 L69106 47890" /> 
<path d="M68202 47890 L68202 46710" /> 
<path d="M68202 46710 L68614 46710" /> 
<path d="M68614 46710 L68614 47890" /> 
<path d="M68202 47890 L68614 47890" /> 
<path d="M67710 47890 L67710 46710" /> 
<path d="M67710 46710 L68122 46710" /> 
<path d="M68122 46710 L68122 47890" /> 
<path d="M67710 47890 L68122 47890" /> 
<path d="M57511 47915 L57511 46735" /> 
<path d="M57511 46735 L57923 46735" /> 
<path d="M57923 46735 L57923 47915" /> 
<path d="M57511 47915 L57923 47915" /> 
<path d="M57019 47915 L57019 46735" /> 
<path d="M57019 46735 L57431 46735" /> 
<path d="M57431 46735 L57431 47915" /> 
<path d="M57019 47915 L57431 47915" /> 
<path d="M56527 47915 L56527 46735" /> 
<path d="M56527 46735 L56939 46735" /> 
<path d="M56939 46735 L56939 47915" /> 
<path d="M56527 47915 L56939 47915" /> 
<path d="M56035 47915 L56035 46735" /> 
<path d="M56035 46735 L56447 46735" /> 
<path d="M56447 46735 L56447 47915" /> 
<path d="M56035 47915 L56447 47915" /> 
<path d="M72936 38390 L72936 37210" /> 
<path d="M72936 37210 L73348 37210" /> 
<path d="M73348 37210 L73348 38390" /> 
<path d="M72936 38390 L73348 38390" /> 
<path d="M72444 38390 L72444 37210" /> 
<path d="M72444 37210 L72856 37210" /> 
<path d="M72856 37210 L72856 38390" /> 
<path d="M72444 38390 L72856 38390" /> 
<path d="M71952 38390 L71952 37210" /> 
<path d="M71952 37210 L72364 37210" /> 
<path d="M72364 37210 L72364 38390" /> 
<path d="M71952 38390 L72364 38390" /> 
<path d="M71460 38390 L71460 37210" /> 
<path d="M71460 37210 L71872 37210" /> 
<path d="M71872 37210 L71872 38390" /> 
<path d="M71460 38390 L71872 38390" /> 
<path d="M29811 33915 L29811 32735" /> 
<path d="M29811 32735 L30223 32735" /> 
<path d="M30223 32735 L30223 33915" /> 
<path d="M29811 33915 L30223 33915" /> 
<path d="M29319 33915 L29319 32735" /> 
<path d="M29319 32735 L29731 32735" /> 
<path d="M29731 32735 L29731 33915" /> 
<path d="M29319 33915 L29731 33915" /> 
<path d="M28827 33915 L28827 32735" /> 
<path d="M28827 32735 L29239 32735" /> 
<path d="M29239 32735 L29239 33915" /> 
<path d="M28827 33915 L29239 33915" /> 
<path d="M28335 33915 L28335 32735" /> 
<path d="M28335 32735 L28747 32735" /> 
<path d="M28747 32735 L28747 33915" /> 
<path d="M28335 33915 L28747 33915" /> 
<path d="M47011 33915 L47011 32735" /> 
<path d="M47011 32735 L47423 32735" /> 
<path d="M47423 32735 L47423 33915" /> 
<path d="M47011 33915 L47423 33915" /> 
<path d="M46519 33915 L46519 32735" /> 
<path d="M46519 32735 L46931 32735" /> 
<path d="M46931 32735 L46931 33915" /> 
<path d="M46519 33915 L46931 33915" /> 
<path d="M46027 33915 L46027 32735" /> 
<path d="M46027 32735 L46439 32735" /> 
<path d="M46439 32735 L46439 33915" /> 
<path d="M46027 33915 L46439 33915" /> 
<path d="M45535 33915 L45535 32735" /> 
<path d="M45535 32735 L45947 32735" /> 
<path d="M45947 32735 L45947 33915" /> 
<path d="M45535 33915 L45947 33915" /> 
<path d="M63936 33890 L63936 32710" /> 
<path d="M63936 32710 L64348 32710" /> 
<path d="M64348 32710 L64348 33890" /> 
<path d="M63936 33890 L64348 33890" /> 
<path d="M63444 33890 L63444 32710" /> 
<path d="M63444 32710 L63856 32710" /> 
<path d="M63856 32710 L63856 33890" /> 
<path d="M63444 33890 L63856 33890" /> 
<path d="M62952 33890 L62952 32710" /> 
<path d="M62952 32710 L63364 32710" /> 
<path d="M63364 32710 L63364 33890" /> 
<path d="M62952 33890 L63364 33890" /> 
<path d="M62460 33890 L62460 32710" /> 
<path d="M62460 32710 L62872 32710" /> 
<path d="M62872 32710 L62872 33890" /> 
<path d="M62460 33890 L62872 33890" /> 
<path d="M40311 33915 L40311 32735" /> 
<path d="M40311 32735 L40723 32735" /> 
<path d="M40723 32735 L40723 33915" /> 
<path d="M40311 33915 L40723 33915" /> 
<path d="M39819 33915 L39819 32735" /> 
<path d="M39819 32735 L40231 32735" /> 
<path d="M40231 32735 L40231 33915" /> 
<path d="M39819 33915 L40231 33915" /> 
<path d="M39327 33915 L39327 32735" /> 
<path d="M39327 32735 L39739 32735" /> 
<path d="M39739 32735 L39739 33915" /> 
<path d="M39327 33915 L39739 33915" /> 
<path d="M38835 33915 L38835 32735" /> 
<path d="M38835 32735 L39247 32735" /> 
<path d="M39247 32735 L39247 33915" /> 
<path d="M38835 33915 L39247 33915" /> 
<path d="M57511 33915 L57511 32735" /> 
<path d="M57511 32735 L57923 32735" /> 
<path d="M57923 32735 L57923 33915" /> 
<path d="M57511 33915 L57923 33915" /> 
<path d="M57019 33915 L57019 32735" /> 
<path d="M57019 32735 L57431 32735" /> 
<path d="M57431 32735 L57431 33915" /> 
<path d="M57019 33915 L57431 33915" /> 
<path d="M56527 33915 L56527 32735" /> 
<path d="M56527 32735 L56939 32735" /> 
<path d="M56939 32735 L56939 33915" /> 
<path d="M56527 33915 L56939 33915" /> 
<path d="M56035 33915 L56035 32735" /> 
<path d="M56035 32735 L56447 32735" /> 
<path d="M56447 32735 L56447 33915" /> 
<path d="M56035 33915 L56447 33915" /> 
<path d="M72936 33890 L72936 32710" /> 
<path d="M72936 32710 L73348 32710" /> 
<path d="M73348 32710 L73348 33890" /> 
<path d="M72936 33890 L73348 33890" /> 
<path d="M72444 33890 L72444 32710" /> 
<path d="M72444 32710 L72856 32710" /> 
<path d="M72856 32710 L72856 33890" /> 
<path d="M72444 33890 L72856 33890" /> 
<path d="M71952 33890 L71952 32710" /> 
<path d="M71952 32710 L72364 32710" /> 
<path d="M72364 32710 L72364 33890" /> 
<path d="M71952 33890 L72364 33890" /> 
<path d="M71460 33890 L71460 32710" /> 
<path d="M71460 32710 L71872 32710" /> 
<path d="M71872 32710 L71872 33890" /> 
<path d="M71460 33890 L71872 33890" /> 
<path d="M36811 47915 L36811 46735" /> 
<path d="M36811 46735 L37223 46735" /> 
<path d="M37223 46735 L37223 47915" /> 
<path d="M36811 47915 L37223 47915" /> 
<path d="M36319 47915 L36319 46735" /> 
<path d="M36319 46735 L36731 46735" /> 
<path d="M36731 46735 L36731 47915" /> 
<path d="M36319 47915 L36731 47915" /> 
<path d="M35827 47915 L35827 46735" /> 
<path d="M35827 46735 L36239 46735" /> 
<path d="M36239 46735 L36239 47915" /> 
<path d="M35827 47915 L36239 47915" /> 
<path d="M35335 47915 L35335 46735" /> 
<path d="M35335 46735 L35747 46735" /> 
<path d="M35747 46735 L35747 47915" /> 
<path d="M35335 47915 L35747 47915" /> 
<path d="M57511 37915 L57511 36735" /> 
<path d="M57511 36735 L57923 36735" /> 
<path d="M57923 36735 L57923 37915" /> 
<path d="M57511 37915 L57923 37915" /> 
<path d="M57019 37915 L57019 36735" /> 
<path d="M57019 36735 L57431 36735" /> 
<path d="M57431 36735 L57431 37915" /> 
<path d="M57019 37915 L57431 37915" /> 
<path d="M56527 37915 L56527 36735" /> 
<path d="M56527 36735 L56939 36735" /> 
<path d="M56939 36735 L56939 37915" /> 
<path d="M56527 37915 L56939 37915" /> 
<path d="M56035 37915 L56035 36735" /> 
<path d="M56035 36735 L56447 36735" /> 
<path d="M56447 36735 L56447 37915" /> 
<path d="M56035 37915 L56447 37915" /> 
<path d="M65436 47140 L65436 45960" /> 
<path d="M65436 45960 L65848 45960" /> 
<path d="M65848 45960 L65848 47140" /> 
<path d="M65436 47140 L65848 47140" /> 
<path d="M64944 47140 L64944 45960" /> 
<path d="M64944 45960 L65356 45960" /> 
<path d="M65356 45960 L65356 47140" /> 
<path d="M64944 47140 L65356 47140" /> 
<path d="M64452 47140 L64452 45960" /> 
<path d="M64452 45960 L64864 45960" /> 
<path d="M64864 45960 L64864 47140" /> 
<path d="M64452 47140 L64864 47140" /> 
<path d="M63960 47140 L63960 45960" /> 
<path d="M63960 45960 L64372 45960" /> 
<path d="M64372 45960 L64372 47140" /> 
<path d="M63960 47140 L64372 47140" /> 
<path d="M47011 47915 L47011 46735" /> 
<path d="M47011 46735 L47423 46735" /> 
<path d="M47423 46735 L47423 47915" /> 
<path d="M47011 47915 L47423 47915" /> 
<path d="M46519 47915 L46519 46735" /> 
<path d="M46519 46735 L46931 46735" /> 
<path d="M46931 46735 L46931 47915" /> 
<path d="M46519 47915 L46931 47915" /> 
<path d="M46027 47915 L46027 46735" /> 
<path d="M46027 46735 L46439 46735" /> 
<path d="M46439 46735 L46439 47915" /> 
<path d="M46027 47915 L46439 47915" /> 
<path d="M45535 47915 L45535 46735" /> 
<path d="M45535 46735 L45947 46735" /> 
<path d="M45947 46735 L45947 47915" /> 
<path d="M45535 47915 L45947 47915" /> 
<path d="M33311 47915 L33311 46735" /> 
<path d="M33311 46735 L33723 46735" /> 
<path d="M33723 46735 L33723 47915" /> 
<path d="M33311 47915 L33723 47915" /> 
<path d="M32819 47915 L32819 46735" /> 
<path d="M32819 46735 L33231 46735" /> 
<path d="M33231 46735 L33231 47915" /> 
<path d="M32819 47915 L33231 47915" /> 
<path d="M32327 47915 L32327 46735" /> 
<path d="M32327 46735 L32739 46735" /> 
<path d="M32739 46735 L32739 47915" /> 
<path d="M32327 47915 L32739 47915" /> 
<path d="M31835 47915 L31835 46735" /> 
<path d="M31835 46735 L32247 46735" /> 
<path d="M32247 46735 L32247 47915" /> 
<path d="M31835 47915 L32247 47915" /> 
<ellipse cx="16975" cy="48975" rx="354" ry="354"  /> 
<ellipse cx="17975" cy="48975" rx="354" ry="354"  /> 
<ellipse cx="16975" cy="46625" rx="354" ry="354"  /> 
<ellipse cx="17975" cy="46625" rx="354" ry="354"  /> 
<ellipse cx="16975" cy="51325" rx="354" ry="354"  /> 
<ellipse cx="17975" cy="51325" rx="354" ry="354"  /> 
<ellipse cx="16975" cy="44275" rx="354" ry="354"  /> 
<ellipse cx="17975" cy="44275" rx="354" ry="354"  /> 
<ellipse cx="49823" cy="15975" rx="689" ry="689"  /> 
<ellipse cx="74627" cy="15975" rx="689" ry="689"  /> 
<ellipse cx="74627" cy="56075" rx="689" ry="689"  /> 
<ellipse cx="49823" cy="56075" rx="689" ry="689"  /> 
<ellipse cx="22298" cy="15975" rx="689" ry="689"  /> 
<ellipse cx="47102" cy="15975" rx="689" ry="689"  /> 
<ellipse cx="47102" cy="56075" rx="689" ry="689"  /> 
<ellipse cx="22298" cy="56075" rx="689" ry="689"  /> 
</g> 
</svg> 
