<?xml version="1.0" standalone="no"?>
<!DOCTYPE svg PUBLIC "-//W3C//DTD SVG 1.1//EN" 
"http://www.w3.org/Graphics/SVG/1.1/DTD/svg11.dtd"> 
<svg
  xmlns="http://www.w3.org/2000/svg"
  version="1.1"
  width="11.7in" height="8.267in" viewBox="0 0 117000 82670 "
>
  <title>SVG Picture created as rgbcp-SoldP_Front.svg </title>
  <desc>Picture generated by wxSVG v0101 </desc>
  <g style="fill:black; stroke:black; stroke-width:1">
</g>
<g style="fill:#000000; fill-opacity:0.0; 
  stroke:#000000; stroke-linecap:round; stroke-linejoin:round; stroke-opacity:1.0; stroke-opacity:1.0; stroke-width:39" 
   transform="translate(0 0) scale(1 1)">
<path d="M84922 25478 L83978 25478" /> 
<path d="M83978 25478 L83978 25322" /> 
<path d="M83978 25322 L84922 25322" /> 
<path d="M84922 25478 L84922 25322" /> 
<path d="M84922 25163 L83978 25163" /> 
<path d="M83978 25163 L83978 25007" /> 
<path d="M83978 25007 L84922 25007" /> 
<path d="M84922 25163 L84922 25007" /> 
<path d="M84922 25793 L83978 25793" /> 
<path d="M83978 25793 L83978 25637" /> 
<path d="M83978 25637 L84922 25637" /> 
<path d="M84922 25793 L84922 25637" /> 
<path d="M84922 24848 L83978 24848" /> 
<path d="M83978 24848 L83978 24692" /> 
<path d="M83978 24692 L84922 24692" /> 
<path d="M84922 24848 L84922 24692" /> 
<path d="M84922 26108 L83978 26108" /> 
<path d="M83978 26108 L83978 25952" /> 
<path d="M83978 25952 L84922 25952" /> 
<path d="M84922 26108 L84922 25952" /> 
<ellipse cx="85789" cy="24534" rx="197" ry="197"  /> 
</g>
<g style="fill:#FFFF00; fill-opacity:1.0; 
  stroke:#808000; stroke-linecap:round; stroke-linejoin:round; stroke-opacity:1.0; stroke-opacity:1.0; stroke-width:0" 
   transform="translate(0 0) scale(1 1)">
<ellipse cx="85789" cy="24534" rx="157" ry="157"  /> 
</g>
<g style="fill:#000000; fill-opacity:0.0; 
  stroke:#000000; stroke-linecap:round; stroke-linejoin:round; stroke-opacity:1.0; stroke-opacity:1.0; stroke-width:39" 
   transform="translate(0 0) scale(1 1)">
<ellipse cx="85789" cy="26266" rx="197" ry="197"  /> 
</g>
<g style="fill:#FFFF00; fill-opacity:1.0; 
  stroke:#808000; stroke-linecap:round; stroke-linejoin:round; stroke-opacity:1.0; stroke-opacity:1.0; stroke-width:0" 
   transform="translate(0 0) scale(1 1)">
<ellipse cx="85789" cy="26266" rx="157" ry="157"  /> 
</g>
<g style="fill:#000000; fill-opacity:0.0; 
  stroke:#000000; stroke-linecap:round; stroke-linejoin:round; stroke-opacity:1.0; stroke-opacity:1.0; stroke-width:39" 
   transform="translate(0 0) scale(1 1)">
<path d="M84843 24061 L84057 24061" /> 
<path d="M84057 24061 L84057 23195" /> 
<path d="M84057 23195 L84843 23195" /> 
<path d="M84843 24061 L84843 23195" /> 
<path d="M84843 27605 L84057 27605" /> 
<path d="M84057 27605 L84057 26739" /> 
<path d="M84057 26739 L84843 26739" /> 
<path d="M84843 27605 L84843 26739" /> 
<path d="M87205 24061 L86419 24061" /> 
<path d="M86419 24061 L86419 23195" /> 
<path d="M86419 23195 L87205 23195" /> 
<path d="M87205 24061 L87205 23195" /> 
<path d="M87205 27605 L86419 27605" /> 
<path d="M86419 27605 L86419 26739" /> 
<path d="M86419 26739 L87205 26739" /> 
<path d="M87205 27605 L87205 26739" /> 
<ellipse cx="10000" cy="31514" rx="393" ry="393"  /> 
<ellipse cx="10000" cy="33286" rx="393" ry="393"  /> 
<path d="M11377 31415 L10591 31415" /> 
<path d="M10591 31415 L10591 30629" /> 
<path d="M10591 30629 L11377 30629" /> 
<path d="M11377 31415 L11377 30629" /> 
</g>
<g style="fill:#FFFF00; fill-opacity:1.0; 
  stroke:#808000; stroke-linecap:round; stroke-linejoin:round; stroke-opacity:1.0; stroke-opacity:1.0; stroke-width:0" 
   transform="translate(0 0) scale(1 1)">
<ellipse cx="10984" cy="31022" rx="197" ry="197"  /> 
</g>
<g style="fill:#000000; fill-opacity:0.0; 
  stroke:#000000; stroke-linecap:round; stroke-linejoin:round; stroke-opacity:1.0; stroke-opacity:1.0; stroke-width:39" 
   transform="translate(0 0) scale(1 1)">
<path d="M11377 34171 L10591 34171" /> 
<path d="M10591 34171 L10591 33385" /> 
<path d="M10591 33385 L11377 33385" /> 
<path d="M11377 34171 L11377 33385" /> 
</g>
<g style="fill:#FFFF00; fill-opacity:1.0; 
  stroke:#808000; stroke-linecap:round; stroke-linejoin:round; stroke-opacity:1.0; stroke-opacity:1.0; stroke-width:0" 
   transform="translate(0 0) scale(1 1)">
<ellipse cx="10984" cy="33778" rx="197" ry="197"  /> 
</g>
<g style="fill:#000000; fill-opacity:0.0; 
  stroke:#000000; stroke-linecap:round; stroke-linejoin:round; stroke-opacity:1.0; stroke-opacity:1.0; stroke-width:39" 
   transform="translate(0 0) scale(1 1)">
<ellipse cx="10000" cy="42664" rx="393" ry="393"  /> 
<ellipse cx="10000" cy="44436" rx="393" ry="393"  /> 
<path d="M11377 42565 L10591 42565" /> 
<path d="M10591 42565 L10591 41779" /> 
<path d="M10591 41779 L11377 41779" /> 
<path d="M11377 42565 L11377 41779" /> 
</g>
<g style="fill:#FFFF00; fill-opacity:1.0; 
  stroke:#808000; stroke-linecap:round; stroke-linejoin:round; stroke-opacity:1.0; stroke-opacity:1.0; stroke-width:0" 
   transform="translate(0 0) scale(1 1)">
<ellipse cx="10984" cy="42172" rx="197" ry="197"  /> 
</g>
<g style="fill:#000000; fill-opacity:0.0; 
  stroke:#000000; stroke-linecap:round; stroke-linejoin:round; stroke-opacity:1.0; stroke-opacity:1.0; stroke-width:39" 
   transform="translate(0 0) scale(1 1)">
<path d="M11377 45321 L10591 45321" /> 
<path d="M10591 45321 L10591 44535" /> 
<path d="M10591 44535 L11377 44535" /> 
<path d="M11377 45321 L11377 44535" /> 
</g>
<g style="fill:#FFFF00; fill-opacity:1.0; 
  stroke:#808000; stroke-linecap:round; stroke-linejoin:round; stroke-opacity:1.0; stroke-opacity:1.0; stroke-width:0" 
   transform="translate(0 0) scale(1 1)">
<ellipse cx="10984" cy="44928" rx="197" ry="197"  /> 
</g>
<g style="fill:#000000; fill-opacity:0.0; 
  stroke:#000000; stroke-linecap:round; stroke-linejoin:round; stroke-opacity:1.0; stroke-opacity:1.0; stroke-width:39" 
   transform="translate(0 0) scale(1 1)">
<ellipse cx="10000" cy="50164" rx="393" ry="393"  /> 
<ellipse cx="10000" cy="51936" rx="393" ry="393"  /> 
<path d="M11377 50065 L10591 50065" /> 
<path d="M10591 50065 L10591 49279" /> 
<path d="M10591 49279 L11377 49279" /> 
<path d="M11377 50065 L11377 49279" /> 
</g>
<g style="fill:#FFFF00; fill-opacity:1.0; 
  stroke:#808000; stroke-linecap:round; stroke-linejoin:round; stroke-opacity:1.0; stroke-opacity:1.0; stroke-width:0" 
   transform="translate(0 0) scale(1 1)">
<ellipse cx="10984" cy="49672" rx="197" ry="197"  /> 
</g>
<g style="fill:#000000; fill-opacity:0.0; 
  stroke:#000000; stroke-linecap:round; stroke-linejoin:round; stroke-opacity:1.0; stroke-opacity:1.0; stroke-width:39" 
   transform="translate(0 0) scale(1 1)">
<path d="M11377 52821 L10591 52821" /> 
<path d="M10591 52821 L10591 52035" /> 
<path d="M10591 52035 L11377 52035" /> 
<path d="M11377 52821 L11377 52035" /> 
</g>
<g style="fill:#FFFF00; fill-opacity:1.0; 
  stroke:#808000; stroke-linecap:round; stroke-linejoin:round; stroke-opacity:1.0; stroke-opacity:1.0; stroke-width:0" 
   transform="translate(0 0) scale(1 1)">
<ellipse cx="10984" cy="52428" rx="197" ry="197"  /> 
</g>
<g style="fill:#000000; fill-opacity:0.0; 
  stroke:#000000; stroke-linecap:round; stroke-linejoin:round; stroke-opacity:1.0; stroke-opacity:1.0; stroke-width:39" 
   transform="translate(0 0) scale(1 1)">
<ellipse cx="86300" cy="44436" rx="393" ry="393"  /> 
<ellipse cx="86300" cy="42664" rx="393" ry="393"  /> 
<path d="M84923 44535 L85709 44535" /> 
<path d="M85709 44535 L85709 45321" /> 
<path d="M85709 45321 L84923 45321" /> 
<path d="M84923 44535 L84923 45321" /> 
</g>
<g style="fill:#FFFF00; fill-opacity:1.0; 
  stroke:#808000; stroke-linecap:round; stroke-linejoin:round; stroke-opacity:1.0; stroke-opacity:1.0; stroke-width:0" 
   transform="translate(0 0) scale(1 1)">
<ellipse cx="85316" cy="44928" rx="197" ry="197"  /> 
</g>
<g style="fill:#000000; fill-opacity:0.0; 
  stroke:#000000; stroke-linecap:round; stroke-linejoin:round; stroke-opacity:1.0; stroke-opacity:1.0; stroke-width:39" 
   transform="translate(0 0) scale(1 1)">
<path d="M84923 41779 L85709 41779" /> 
<path d="M85709 41779 L85709 42565" /> 
<path d="M85709 42565 L84923 42565" /> 
<path d="M84923 41779 L84923 42565" /> 
</g>
<g style="fill:#FFFF00; fill-opacity:1.0; 
  stroke:#808000; stroke-linecap:round; stroke-linejoin:round; stroke-opacity:1.0; stroke-opacity:1.0; stroke-width:0" 
   transform="translate(0 0) scale(1 1)">
<ellipse cx="85316" cy="42172" rx="197" ry="197"  /> 
</g>
<g style="fill:#000000; fill-opacity:0.0; 
  stroke:#000000; stroke-linecap:round; stroke-linejoin:round; stroke-opacity:1.0; stroke-opacity:1.0; stroke-width:39" 
   transform="translate(0 0) scale(1 1)">
<ellipse cx="86300" cy="51936" rx="393" ry="393"  /> 
<ellipse cx="86300" cy="50164" rx="393" ry="393"  /> 
<path d="M84923 52035 L85709 52035" /> 
<path d="M85709 52035 L85709 52821" /> 
<path d="M85709 52821 L84923 52821" /> 
<path d="M84923 52035 L84923 52821" /> 
</g>
<g style="fill:#FFFF00; fill-opacity:1.0; 
  stroke:#808000; stroke-linecap:round; stroke-linejoin:round; stroke-opacity:1.0; stroke-opacity:1.0; stroke-width:0" 
   transform="translate(0 0) scale(1 1)">
<ellipse cx="85316" cy="52428" rx="197" ry="197"  /> 
</g>
<g style="fill:#000000; fill-opacity:0.0; 
  stroke:#000000; stroke-linecap:round; stroke-linejoin:round; stroke-opacity:1.0; stroke-opacity:1.0; stroke-width:39" 
   transform="translate(0 0) scale(1 1)">
<path d="M84923 49279 L85709 49279" /> 
<path d="M85709 49279 L85709 50065" /> 
<path d="M85709 50065 L84923 50065" /> 
<path d="M84923 49279 L84923 50065" /> 
</g>
<g style="fill:#FFFF00; fill-opacity:1.0; 
  stroke:#808000; stroke-linecap:round; stroke-linejoin:round; stroke-opacity:1.0; stroke-opacity:1.0; stroke-width:0" 
   transform="translate(0 0) scale(1 1)">
<ellipse cx="85316" cy="49672" rx="197" ry="197"  /> 
</g>
<g style="fill:#000000; fill-opacity:0.0; 
  stroke:#000000; stroke-linecap:round; stroke-linejoin:round; stroke-opacity:1.0; stroke-opacity:1.0; stroke-width:39" 
   transform="translate(0 0) scale(1 1)">
<ellipse cx="10000" cy="24114" rx="393" ry="393"  /> 
<ellipse cx="10000" cy="25886" rx="393" ry="393"  /> 
<path d="M11377 24015 L10591 24015" /> 
<path d="M10591 24015 L10591 23229" /> 
<path d="M10591 23229 L11377 23229" /> 
<path d="M11377 24015 L11377 23229" /> 
</g>
<g style="fill:#FFFF00; fill-opacity:1.0; 
  stroke:#808000; stroke-linecap:round; stroke-linejoin:round; stroke-opacity:1.0; stroke-opacity:1.0; stroke-width:0" 
   transform="translate(0 0) scale(1 1)">
<ellipse cx="10984" cy="23622" rx="197" ry="197"  /> 
</g>
<g style="fill:#000000; fill-opacity:0.0; 
  stroke:#000000; stroke-linecap:round; stroke-linejoin:round; stroke-opacity:1.0; stroke-opacity:1.0; stroke-width:39" 
   transform="translate(0 0) scale(1 1)">
<path d="M11377 26771 L10591 26771" /> 
<path d="M10591 26771 L10591 25985" /> 
<path d="M10591 25985 L11377 25985" /> 
<path d="M11377 26771 L11377 25985" /> 
</g>
<g style="fill:#FFFF00; fill-opacity:1.0; 
  stroke:#808000; stroke-linecap:round; stroke-linejoin:round; stroke-opacity:1.0; stroke-opacity:1.0; stroke-width:0" 
   transform="translate(0 0) scale(1 1)">
<ellipse cx="10984" cy="26378" rx="197" ry="197"  /> 
</g>
<g style="fill:#000000; fill-opacity:0.0; 
  stroke:#000000; stroke-linecap:round; stroke-linejoin:round; stroke-opacity:1.0; stroke-opacity:1.0; stroke-width:39" 
   transform="translate(0 0) scale(1 1)">
<ellipse cx="86765" cy="35702" rx="590" ry="590"  /> 
</g>
<g style="fill:#FFFF00; fill-opacity:1.0; 
  stroke:#808000; stroke-linecap:round; stroke-linejoin:round; stroke-opacity:1.0; stroke-opacity:1.0; stroke-width:0" 
   transform="translate(0 0) scale(1 1)">
<ellipse cx="86765" cy="35702" rx="236" ry="236"  /> 
</g>
<g style="fill:#000000; fill-opacity:0.0; 
  stroke:#000000; stroke-linecap:round; stroke-linejoin:round; stroke-opacity:1.0; stroke-opacity:1.0; stroke-width:39" 
   transform="translate(0 0) scale(1 1)">
<ellipse cx="86765" cy="30348" rx="590" ry="590"  /> 
</g>
<g style="fill:#FFFF00; fill-opacity:1.0; 
  stroke:#808000; stroke-linecap:round; stroke-linejoin:round; stroke-opacity:1.0; stroke-opacity:1.0; stroke-width:0" 
   transform="translate(0 0) scale(1 1)">
<ellipse cx="86765" cy="30348" rx="236" ry="236"  /> 
</g>
<g style="fill:#000000; fill-opacity:0.0; 
  stroke:#000000; stroke-linecap:round; stroke-linejoin:round; stroke-opacity:1.0; stroke-opacity:1.0; stroke-width:39" 
   transform="translate(0 0) scale(1 1)">
<ellipse cx="82985" cy="34836" rx="689" ry="689"  /> 
<ellipse cx="82985" cy="33025" rx="689" ry="689"  /> 
<ellipse cx="82985" cy="31214" rx="689" ry="689"  /> 
<path d="M24032 17516 L24898 17516" /> 
<path d="M24898 17516 L24898 17830" /> 
<path d="M24898 17830 L24032 17830" /> 
<path d="M24032 17516 L24032 17830" /> 
<path d="M24032 18579 L24898 18579" /> 
<path d="M24898 18579 L24898 18893" /> 
<path d="M24898 18893 L24032 18893" /> 
<path d="M24032 18579 L24032 18893" /> 
<path d="M63213 22039 L62347 22039" /> 
<path d="M62347 22039 L62347 21725" /> 
<path d="M62347 21725 L63213 21725" /> 
<path d="M63213 22039 L63213 21725" /> 
<path d="M63213 20976 L62347 20976" /> 
<path d="M62347 20976 L62347 20662" /> 
<path d="M62347 20662 L63213 20662" /> 
<path d="M63213 20976 L63213 20662" /> 
<path d="M65032 62489 L64166 62489" /> 
<path d="M64166 62489 L64166 62175" /> 
<path d="M64166 62175 L65032 62175" /> 
<path d="M65032 62489 L65032 62175" /> 
<path d="M65032 61426 L64166 61426" /> 
<path d="M64166 61426 L64166 61112" /> 
<path d="M64166 61112 L65032 61112" /> 
<path d="M65032 61426 L65032 61112" /> 
<path d="M58632 62489 L57766 62489" /> 
<path d="M57766 62489 L57766 62175" /> 
<path d="M57766 62175 L58632 62175" /> 
<path d="M58632 62489 L58632 62175" /> 
<path d="M58632 61426 L57766 61426" /> 
<path d="M57766 61426 L57766 61112" /> 
<path d="M57766 61112 L58632 61112" /> 
<path d="M58632 61426 L58632 61112" /> 
<path d="M17027 39158 L17027 39472" /> 
<path d="M17027 39472 L16713 39472" /> 
<path d="M16713 39472 L16713 39158" /> 
<path d="M17027 39158 L16713 39158" /> 
<path d="M17027 38528 L17027 38842" /> 
<path d="M17027 38842 L16713 38842" /> 
<path d="M16713 38842 L16713 38528" /> 
<path d="M17027 38528 L16713 38528" /> 
<path d="M18287 38528 L18287 38842" /> 
<path d="M18287 38842 L17973 38842" /> 
<path d="M17973 38842 L17973 38528" /> 
<path d="M18287 38528 L17973 38528" /> 
<path d="M18287 39158 L18287 39472" /> 
<path d="M18287 39472 L17973 39472" /> 
<path d="M17973 39472 L17973 39158" /> 
<path d="M18287 39158 L17973 39158" /> 
<path d="M78449 26858 L78449 27842" /> 
<path d="M78449 27842 L77269 27842" /> 
<path d="M77269 27842 L77269 26858" /> 
<path d="M78449 26858 L77269 26858" /> 
<path d="M76481 26858 L76481 27842" /> 
<path d="M76481 27842 L75301 27842" /> 
<path d="M75301 27842 L75301 26858" /> 
<path d="M76481 26858 L75301 26858" /> 
<path d="M21100 38600 L21100 39400" /> 
<path d="M21100 39400 L20500 39400" /> 
<path d="M20500 39400 L20500 38600" /> 
<path d="M21100 38600 L20500 38600" /> 
<path d="M19800 38600 L19800 39400" /> 
<path d="M19800 39400 L19200 39400" /> 
<path d="M19200 39400 L19200 38600" /> 
<path d="M19800 38600 L19200 38600" /> 
<path d="M14700 26000 L14700 26800" /> 
<path d="M14700 26800 L14100 26800" /> 
<path d="M14100 26800 L14100 26000" /> 
<path d="M14700 26000 L14100 26000" /> 
<path d="M13400 26000 L13400 26800" /> 
<path d="M13400 26800 L12800 26800" /> 
<path d="M12800 26800 L12800 26000" /> 
<path d="M13400 26000 L12800 26000" /> 
<path d="M18450 37050 L18450 37850" /> 
<path d="M18450 37850 L17850 37850" /> 
<path d="M17850 37850 L17850 37050" /> 
<path d="M18450 37050 L17850 37050" /> 
<path d="M17150 37050 L17150 37850" /> 
<path d="M17150 37850 L16550 37850" /> 
<path d="M16550 37850 L16550 37050" /> 
<path d="M17150 37050 L16550 37050" /> 
<path d="M81600 42550 L81600 41750" /> 
<path d="M81600 41750 L82200 41750" /> 
<path d="M82200 41750 L82200 42550" /> 
<path d="M81600 42550 L82200 42550" /> 
<path d="M82900 42550 L82900 41750" /> 
<path d="M82900 41750 L83500 41750" /> 
<path d="M83500 41750 L83500 42550" /> 
<path d="M82900 42550 L83500 42550" /> 
<path d="M18450 40200 L18450 41000" /> 
<path d="M18450 41000 L17850 41000" /> 
<path d="M17850 41000 L17850 40200" /> 
<path d="M18450 40200 L17850 40200" /> 
<path d="M17150 40200 L17150 41000" /> 
<path d="M17150 41000 L16550 41000" /> 
<path d="M16550 41000 L16550 40200" /> 
<path d="M17150 40200 L16550 40200" /> 
<path d="M21475 50925 L21475 51725" /> 
<path d="M21475 51725 L20875 51725" /> 
<path d="M20875 51725 L20875 50925" /> 
<path d="M21475 50925 L20875 50925" /> 
<path d="M20175 50925 L20175 51725" /> 
<path d="M20175 51725 L19575 51725" /> 
<path d="M19575 51725 L19575 50925" /> 
<path d="M20175 50925 L19575 50925" /> 
<path d="M21475 48575 L21475 49375" /> 
<path d="M21475 49375 L20875 49375" /> 
<path d="M20875 49375 L20875 48575" /> 
<path d="M21475 48575 L20875 48575" /> 
<path d="M20175 48575 L20175 49375" /> 
<path d="M20175 49375 L19575 49375" /> 
<path d="M19575 49375 L19575 48575" /> 
<path d="M20175 48575 L19575 48575" /> 
<path d="M20600 62825 L20600 62025" /> 
<path d="M20600 62025 L21200 62025" /> 
<path d="M21200 62025 L21200 62825" /> 
<path d="M20600 62825 L21200 62825" /> 
<path d="M21900 62825 L21900 62025" /> 
<path d="M21900 62025 L22500 62025" /> 
<path d="M22500 62025 L22500 62825" /> 
<path d="M21900 62825 L22500 62825" /> 
<path d="M14700 33400 L14700 34200" /> 
<path d="M14700 34200 L14100 34200" /> 
<path d="M14100 34200 L14100 33400" /> 
<path d="M14700 33400 L14100 33400" /> 
<path d="M13400 33400 L13400 34200" /> 
<path d="M13400 34200 L12800 34200" /> 
<path d="M12800 34200 L12800 33400" /> 
<path d="M13400 33400 L12800 33400" /> 
<path d="M14700 44550 L14700 45350" /> 
<path d="M14700 45350 L14100 45350" /> 
<path d="M14100 45350 L14100 44550" /> 
<path d="M14700 44550 L14100 44550" /> 
<path d="M13400 44550 L13400 45350" /> 
<path d="M13400 45350 L12800 45350" /> 
<path d="M12800 45350 L12800 44550" /> 
<path d="M13400 44550 L12800 44550" /> 
<path d="M14700 52050 L14700 52850" /> 
<path d="M14700 52850 L14100 52850" /> 
<path d="M14100 52850 L14100 52050" /> 
<path d="M14700 52050 L14100 52050" /> 
<path d="M13400 52050 L13400 52850" /> 
<path d="M13400 52850 L12800 52850" /> 
<path d="M12800 52850 L12800 52050" /> 
<path d="M13400 52050 L12800 52050" /> 
<path d="M74220 27650 L73420 27650" /> 
<path d="M73420 27650 L73420 27050" /> 
<path d="M73420 27050 L74220 27050" /> 
<path d="M74220 27650 L74220 27050" /> 
<path d="M74220 26350 L73420 26350" /> 
<path d="M73420 26350 L73420 25750" /> 
<path d="M73420 25750 L74220 25750" /> 
<path d="M74220 26350 L74220 25750" /> 
<path d="M81600 50050 L81600 49250" /> 
<path d="M81600 49250 L82200 49250" /> 
<path d="M82200 49250 L82200 50050" /> 
<path d="M81600 50050 L82200 50050" /> 
<path d="M82900 50050 L82900 49250" /> 
<path d="M82900 49250 L83500 49250" /> 
<path d="M83500 49250 L83500 50050" /> 
<path d="M82900 50050 L83500 50050" /> 
<path d="M16850 34900 L16050 34900" /> 
<path d="M16050 34900 L16050 34300" /> 
<path d="M16050 34300 L16850 34300" /> 
<path d="M16850 34900 L16850 34300" /> 
<path d="M16850 33600 L16050 33600" /> 
<path d="M16050 33600 L16050 33000" /> 
<path d="M16050 33000 L16850 33000" /> 
<path d="M16850 33600 L16850 33000" /> 
<path d="M18250 34900 L17450 34900" /> 
<path d="M17450 34900 L17450 34300" /> 
<path d="M17450 34300 L18250 34300" /> 
<path d="M18250 34900 L18250 34300" /> 
<path d="M18250 33600 L17450 33600" /> 
<path d="M17450 33600 L17450 33000" /> 
<path d="M17450 33000 L18250 33000" /> 
<path d="M18250 33600 L18250 33000" /> 
<path d="M19650 34900 L18850 34900" /> 
<path d="M18850 34900 L18850 34300" /> 
<path d="M18850 34300 L19650 34300" /> 
<path d="M19650 34900 L19650 34300" /> 
<path d="M19650 33600 L18850 33600" /> 
<path d="M18850 33600 L18850 33000" /> 
<path d="M18850 33000 L19650 33000" /> 
<path d="M19650 33600 L19650 33000" /> 
<path d="M21050 34900 L20250 34900" /> 
<path d="M20250 34900 L20250 34300" /> 
<path d="M20250 34300 L21050 34300" /> 
<path d="M21050 34900 L21050 34300" /> 
<path d="M21050 33600 L20250 33600" /> 
<path d="M20250 33600 L20250 33000" /> 
<path d="M20250 33000 L21050 33000" /> 
<path d="M21050 33600 L21050 33000" /> 
<path d="M64290 21460 L65090 21460" /> 
<path d="M65090 21460 L65090 22060" /> 
<path d="M65090 22060 L64290 22060" /> 
<path d="M64290 21460 L64290 22060" /> 
<path d="M64290 22760 L65090 22760" /> 
<path d="M65090 22760 L65090 23360" /> 
<path d="M65090 23360 L64290 23360" /> 
<path d="M64290 22760 L64290 23360" /> 
<path d="M16050 22500 L16850 22500" /> 
<path d="M16850 22500 L16850 23100" /> 
<path d="M16850 23100 L16050 23100" /> 
<path d="M16050 22500 L16050 23100" /> 
<path d="M16050 23800 L16850 23800" /> 
<path d="M16850 23800 L16850 24400" /> 
<path d="M16850 24400 L16050 24400" /> 
<path d="M16050 23800 L16050 24400" /> 
<path d="M57240 53300 L58040 53300" /> 
<path d="M58040 53300 L58040 53900" /> 
<path d="M58040 53900 L57240 53900" /> 
<path d="M57240 53300 L57240 53900" /> 
<path d="M57240 54600 L58040 54600" /> 
<path d="M58040 54600 L58040 55200" /> 
<path d="M58040 55200 L57240 55200" /> 
<path d="M57240 54600 L57240 55200" /> 
<path d="M21475 46225 L21475 47025" /> 
<path d="M21475 47025 L20875 47025" /> 
<path d="M20875 47025 L20875 46225" /> 
<path d="M21475 46225 L20875 46225" /> 
<path d="M20175 46225 L20175 47025" /> 
<path d="M20175 47025 L19575 47025" /> 
<path d="M19575 47025 L19575 46225" /> 
<path d="M20175 46225 L19575 46225" /> 
<path d="M21475 43875 L21475 44675" /> 
<path d="M21475 44675 L20875 44675" /> 
<path d="M20875 44675 L20875 43875" /> 
<path d="M21475 43875 L20875 43875" /> 
<path d="M20175 43875 L20175 44675" /> 
<path d="M20175 44675 L19575 44675" /> 
<path d="M19575 44675 L19575 43875" /> 
<path d="M20175 43875 L19575 43875" /> 
<path d="M68160 53300 L68960 53300" /> 
<path d="M68960 53300 L68960 53900" /> 
<path d="M68960 53900 L68160 53900" /> 
<path d="M68160 53300 L68160 53900" /> 
<path d="M68160 54600 L68960 54600" /> 
<path d="M68960 54600 L68960 55200" /> 
<path d="M68960 55200 L68160 55200" /> 
<path d="M68160 54600 L68160 55200" /> 
<path d="M66600 53300 L67400 53300" /> 
<path d="M67400 53300 L67400 53900" /> 
<path d="M67400 53900 L66600 53900" /> 
<path d="M66600 53300 L66600 53900" /> 
<path d="M66600 54600 L67400 54600" /> 
<path d="M67400 54600 L67400 55200" /> 
<path d="M67400 55200 L66600 55200" /> 
<path d="M66600 54600 L66600 55200" /> 
<path d="M65040 53300 L65840 53300" /> 
<path d="M65840 53300 L65840 53900" /> 
<path d="M65840 53900 L65040 53900" /> 
<path d="M65040 53300 L65040 53900" /> 
<path d="M65040 54600 L65840 54600" /> 
<path d="M65840 54600 L65840 55200" /> 
<path d="M65840 55200 L65040 55200" /> 
<path d="M65040 54600 L65040 55200" /> 
<path d="M63480 53300 L64280 53300" /> 
<path d="M64280 53300 L64280 53900" /> 
<path d="M64280 53900 L63480 53900" /> 
<path d="M63480 53300 L63480 53900" /> 
<path d="M63480 54600 L64280 54600" /> 
<path d="M64280 54600 L64280 55200" /> 
<path d="M64280 55200 L63480 55200" /> 
<path d="M63480 54600 L63480 55200" /> 
<path d="M61920 53300 L62720 53300" /> 
<path d="M62720 53300 L62720 53900" /> 
<path d="M62720 53900 L61920 53900" /> 
<path d="M61920 53300 L61920 53900" /> 
<path d="M61920 54600 L62720 54600" /> 
<path d="M62720 54600 L62720 55200" /> 
<path d="M62720 55200 L61920 55200" /> 
<path d="M61920 54600 L61920 55200" /> 
<path d="M60360 53300 L61160 53300" /> 
<path d="M61160 53300 L61160 53900" /> 
<path d="M61160 53900 L60360 53900" /> 
<path d="M60360 53300 L60360 53900" /> 
<path d="M60360 54600 L61160 54600" /> 
<path d="M61160 54600 L61160 55200" /> 
<path d="M61160 55200 L60360 55200" /> 
<path d="M60360 54600 L60360 55200" /> 
<path d="M58800 53300 L59600 53300" /> 
<path d="M59600 53300 L59600 53900" /> 
<path d="M59600 53900 L58800 53900" /> 
<path d="M58800 53300 L58800 53900" /> 
<path d="M58800 54600 L59600 54600" /> 
<path d="M59600 54600 L59600 55200" /> 
<path d="M59600 55200 L58800 55200" /> 
<path d="M58800 54600 L58800 55200" /> 
<path d="M24000 62825 L24000 62025" /> 
<path d="M24000 62025 L24600 62025" /> 
<path d="M24600 62025 L24600 62825" /> 
<path d="M24000 62825 L24600 62825" /> 
<path d="M25300 62825 L25300 62025" /> 
<path d="M25300 62025 L25900 62025" /> 
<path d="M25900 62025 L25900 62825" /> 
<path d="M25300 62825 L25900 62825" /> 
<path d="M55690 53305 L56490 53305" /> 
<path d="M56490 53305 L56490 53905" /> 
<path d="M56490 53905 L55690 53905" /> 
<path d="M55690 53305 L55690 53905" /> 
<path d="M55690 54605 L56490 54605" /> 
<path d="M56490 54605 L56490 55205" /> 
<path d="M56490 55205 L55690 55205" /> 
<path d="M55690 54605 L55690 55205" /> 
<path d="M51200 62825 L51200 62025" /> 
<path d="M51200 62025 L51800 62025" /> 
<path d="M51800 62025 L51800 62825" /> 
<path d="M51200 62825 L51800 62825" /> 
<path d="M52500 62825 L52500 62025" /> 
<path d="M52500 62025 L53100 62025" /> 
<path d="M53100 62025 L53100 62825" /> 
<path d="M52500 62825 L53100 62825" /> 
<path d="M47800 62825 L47800 62025" /> 
<path d="M47800 62025 L48400 62025" /> 
<path d="M48400 62025 L48400 62825" /> 
<path d="M47800 62825 L48400 62825" /> 
<path d="M49100 62825 L49100 62025" /> 
<path d="M49100 62025 L49700 62025" /> 
<path d="M49700 62025 L49700 62825" /> 
<path d="M49100 62825 L49700 62825" /> 
<path d="M44400 62825 L44400 62025" /> 
<path d="M44400 62025 L45000 62025" /> 
<path d="M45000 62025 L45000 62825" /> 
<path d="M44400 62825 L45000 62825" /> 
<path d="M45700 62825 L45700 62025" /> 
<path d="M45700 62025 L46300 62025" /> 
<path d="M46300 62025 L46300 62825" /> 
<path d="M45700 62825 L46300 62825" /> 
<path d="M41000 62825 L41000 62025" /> 
<path d="M41000 62025 L41600 62025" /> 
<path d="M41600 62025 L41600 62825" /> 
<path d="M41000 62825 L41600 62825" /> 
<path d="M42300 62825 L42300 62025" /> 
<path d="M42300 62025 L42900 62025" /> 
<path d="M42900 62025 L42900 62825" /> 
<path d="M42300 62825 L42900 62825" /> 
<path d="M37600 62825 L37600 62025" /> 
<path d="M37600 62025 L38200 62025" /> 
<path d="M38200 62025 L38200 62825" /> 
<path d="M37600 62825 L38200 62825" /> 
<path d="M38900 62825 L38900 62025" /> 
<path d="M38900 62025 L39500 62025" /> 
<path d="M39500 62025 L39500 62825" /> 
<path d="M38900 62825 L39500 62825" /> 
<path d="M34200 62825 L34200 62025" /> 
<path d="M34200 62025 L34800 62025" /> 
<path d="M34800 62025 L34800 62825" /> 
<path d="M34200 62825 L34800 62825" /> 
<path d="M35500 62825 L35500 62025" /> 
<path d="M35500 62025 L36100 62025" /> 
<path d="M36100 62025 L36100 62825" /> 
<path d="M35500 62825 L36100 62825" /> 
<path d="M30800 62825 L30800 62025" /> 
<path d="M30800 62025 L31400 62025" /> 
<path d="M31400 62025 L31400 62825" /> 
<path d="M30800 62825 L31400 62825" /> 
<path d="M32100 62825 L32100 62025" /> 
<path d="M32100 62025 L32700 62025" /> 
<path d="M32700 62025 L32700 62825" /> 
<path d="M32100 62825 L32700 62825" /> 
<path d="M27400 62825 L27400 62025" /> 
<path d="M27400 62025 L28000 62025" /> 
<path d="M28000 62025 L28000 62825" /> 
<path d="M27400 62825 L28000 62825" /> 
<path d="M28700 62825 L28700 62025" /> 
<path d="M28700 62025 L29300 62025" /> 
<path d="M29300 62025 L29300 62825" /> 
<path d="M28700 62825 L29300 62825" /> 
<path d="M56220 22680 L55420 22680" /> 
<path d="M55420 22680 L55420 22080" /> 
<path d="M55420 22080 L56220 22080" /> 
<path d="M56220 22680 L56220 22080" /> 
<path d="M56220 21380 L55420 21380" /> 
<path d="M55420 21380 L55420 20780" /> 
<path d="M55420 20780 L56220 20780" /> 
<path d="M56220 21380 L56220 20780" /> 
<path d="M56724 58625 L56724 57825" /> 
<path d="M56724 57825 L57324 57825" /> 
<path d="M57324 57825 L57324 58625" /> 
<path d="M56724 58625 L57324 58625" /> 
<path d="M58024 58625 L58024 57825" /> 
<path d="M58024 57825 L58624 57825" /> 
<path d="M58624 57825 L58624 58625" /> 
<path d="M58024 58625 L58624 58625" /> 
<path d="M58624 59400 L58624 60200" /> 
<path d="M58624 60200 L58024 60200" /> 
<path d="M58024 60200 L58024 59400" /> 
<path d="M58624 59400 L58024 59400" /> 
<path d="M57324 59400 L57324 60200" /> 
<path d="M57324 60200 L56724 60200" /> 
<path d="M56724 60200 L56724 59400" /> 
<path d="M57324 59400 L56724 59400" /> 
<path d="M72350 16875 L71550 16875" /> 
<path d="M71550 16875 L71550 16275" /> 
<path d="M71550 16275 L72350 16275" /> 
<path d="M72350 16875 L72350 16275" /> 
<path d="M72350 15575 L71550 15575" /> 
<path d="M71550 15575 L71550 14975" /> 
<path d="M71550 14975 L72350 14975" /> 
<path d="M72350 15575 L72350 14975" /> 
<path d="M82700 27750 L82700 28550" /> 
<path d="M82700 28550 L82100 28550" /> 
<path d="M82100 28550 L82100 27750" /> 
<path d="M82700 27750 L82100 27750" /> 
<path d="M81400 27750 L81400 28550" /> 
<path d="M81400 28550 L80800 28550" /> 
<path d="M80800 28550 L80800 27750" /> 
<path d="M81400 27750 L80800 27750" /> 
<path d="M70750 28860 L70750 28060" /> 
<path d="M70750 28060 L71350 28060" /> 
<path d="M71350 28060 L71350 28860" /> 
<path d="M70750 28860 L71350 28860" /> 
<path d="M72050 28860 L72050 28060" /> 
<path d="M72050 28060 L72650 28060" /> 
<path d="M72650 28060 L72650 28860" /> 
<path d="M72050 28860 L72650 28860" /> 
<path d="M80800 22650 L80800 21850" /> 
<path d="M80800 21850 L81400 21850" /> 
<path d="M81400 21850 L81400 22650" /> 
<path d="M80800 22650 L81400 22650" /> 
<path d="M82100 22650 L82100 21850" /> 
<path d="M82100 21850 L82700 21850" /> 
<path d="M82700 21850 L82700 22650" /> 
<path d="M82100 22650 L82700 22650" /> 
<path d="M80800 24125 L80800 23325" /> 
<path d="M80800 23325 L81400 23325" /> 
<path d="M81400 23325 L81400 24125" /> 
<path d="M80800 24125 L81400 24125" /> 
<path d="M82100 24125 L82100 23325" /> 
<path d="M82100 23325 L82700 23325" /> 
<path d="M82700 23325 L82700 24125" /> 
<path d="M82100 24125 L82700 24125" /> 
<path d="M80800 25600 L80800 24800" /> 
<path d="M80800 24800 L81400 24800" /> 
<path d="M81400 24800 L81400 25600" /> 
<path d="M80800 25600 L81400 25600" /> 
<path d="M82100 25600 L82100 24800" /> 
<path d="M82100 24800 L82700 24800" /> 
<path d="M82700 24800 L82700 25600" /> 
<path d="M82100 25600 L82700 25600" /> 
<path d="M77825 28725 L77825 29525" /> 
<path d="M77825 29525 L77225 29525" /> 
<path d="M77225 29525 L77225 28725" /> 
<path d="M77825 28725 L77225 28725" /> 
<path d="M76525 28725 L76525 29525" /> 
<path d="M76525 29525 L75925 29525" /> 
<path d="M75925 29525 L75925 28725" /> 
<path d="M76525 28725 L75925 28725" /> 
<path d="M47410 13720 L47410 12920" /> 
<path d="M47410 12920 L48010 12920" /> 
<path d="M48010 12920 L48010 13720" /> 
<path d="M47410 13720 L48010 13720" /> 
<path d="M48710 13720 L48710 12920" /> 
<path d="M48710 12920 L49310 12920" /> 
<path d="M49310 12920 L49310 13720" /> 
<path d="M48710 13720 L49310 13720" /> 
<path d="M72650 25640 L72650 26440" /> 
<path d="M72650 26440 L72050 26440" /> 
<path d="M72050 26440 L72050 25640" /> 
<path d="M72650 25640 L72050 25640" /> 
<path d="M71350 25640 L71350 26440" /> 
<path d="M71350 26440 L70750 26440" /> 
<path d="M70750 26440 L70750 25640" /> 
<path d="M71350 25640 L70750 25640" /> 
<path d="M80800 27075 L80800 26275" /> 
<path d="M80800 26275 L81400 26275" /> 
<path d="M81400 26275 L81400 27075" /> 
<path d="M80800 27075 L81400 27075" /> 
<path d="M82100 27075 L82100 26275" /> 
<path d="M82100 26275 L82700 26275" /> 
<path d="M82700 26275 L82700 27075" /> 
<path d="M82100 27075 L82700 27075" /> 
<path d="M20250 22500 L21050 22500" /> 
<path d="M21050 22500 L21050 23100" /> 
<path d="M21050 23100 L20250 23100" /> 
<path d="M20250 22500 L20250 23100" /> 
<path d="M20250 23800 L21050 23800" /> 
<path d="M21050 23800 L21050 24400" /> 
<path d="M21050 24400 L20250 24400" /> 
<path d="M20250 23800 L20250 24400" /> 
<path d="M18850 22500 L19650 22500" /> 
<path d="M19650 22500 L19650 23100" /> 
<path d="M19650 23100 L18850 23100" /> 
<path d="M18850 22500 L18850 23100" /> 
<path d="M18850 23800 L19650 23800" /> 
<path d="M19650 23800 L19650 24400" /> 
<path d="M19650 24400 L18850 24400" /> 
<path d="M18850 23800 L18850 24400" /> 
<path d="M17450 22500 L18250 22500" /> 
<path d="M18250 22500 L18250 23100" /> 
<path d="M18250 23100 L17450 23100" /> 
<path d="M17450 22500 L17450 23100" /> 
<path d="M17450 23800 L18250 23800" /> 
<path d="M18250 23800 L18250 24400" /> 
<path d="M18250 24400 L17450 24400" /> 
<path d="M17450 23800 L17450 24400" /> 
<path d="M80150 31450 L79350 31450" /> 
<path d="M79350 31450 L79350 30850" /> 
<path d="M79350 30850 L80150 30850" /> 
<path d="M80150 31450 L80150 30850" /> 
<path d="M80150 30150 L79350 30150" /> 
<path d="M79350 30150 L79350 29550" /> 
<path d="M79350 29550 L80150 29550" /> 
<path d="M80150 30150 L80150 29550" /> 
<path d="M81600 52850 L81600 52050" /> 
<path d="M81600 52050 L82200 52050" /> 
<path d="M82200 52050 L82200 52850" /> 
<path d="M81600 52850 L82200 52850" /> 
<path d="M82900 52850 L82900 52050" /> 
<path d="M82900 52050 L83500 52050" /> 
<path d="M83500 52050 L83500 52850" /> 
<path d="M82900 52850 L83500 52850" /> 
<path d="M81600 45350 L81600 44550" /> 
<path d="M81600 44550 L82200 44550" /> 
<path d="M82200 44550 L82200 45350" /> 
<path d="M81600 45350 L82200 45350" /> 
<path d="M82900 45350 L82900 44550" /> 
<path d="M82900 44550 L83500 44550" /> 
<path d="M83500 44550 L83500 45350" /> 
<path d="M82900 45350 L83500 45350" /> 
<path d="M14700 49250 L14700 50050" /> 
<path d="M14700 50050 L14100 50050" /> 
<path d="M14100 50050 L14100 49250" /> 
<path d="M14700 49250 L14100 49250" /> 
<path d="M13400 49250 L13400 50050" /> 
<path d="M13400 50050 L12800 50050" /> 
<path d="M12800 50050 L12800 49250" /> 
<path d="M13400 49250 L12800 49250" /> 
<path d="M14700 41800 L14700 42600" /> 
<path d="M14700 42600 L14100 42600" /> 
<path d="M14100 42600 L14100 41800" /> 
<path d="M14700 41800 L14100 41800" /> 
<path d="M13400 41800 L13400 42600" /> 
<path d="M13400 42600 L12800 42600" /> 
<path d="M12800 42600 L12800 41800" /> 
<path d="M13400 41800 L12800 41800" /> 
<path d="M14700 30600 L14700 31400" /> 
<path d="M14700 31400 L14100 31400" /> 
<path d="M14100 31400 L14100 30600" /> 
<path d="M14700 30600 L14100 30600" /> 
<path d="M13400 30600 L13400 31400" /> 
<path d="M13400 31400 L12800 31400" /> 
<path d="M12800 31400 L12800 30600" /> 
<path d="M13400 30600 L12800 30600" /> 
<path d="M14700 23200 L14700 24000" /> 
<path d="M14700 24000 L14100 24000" /> 
<path d="M14100 24000 L14100 23200" /> 
<path d="M14700 23200 L14100 23200" /> 
<path d="M13400 23200 L13400 24000" /> 
<path d="M13400 24000 L12800 24000" /> 
<path d="M12800 24000 L12800 23200" /> 
<path d="M13400 23200 L12800 23200" /> 
<path d="M71150 27515 L71150 26965" /> 
<path d="M71150 26965 L71500 26965" /> 
<path d="M71500 26965 L71500 27515" /> 
<path d="M71150 27515 L71500 27515" /> 
<path d="M71900 27515 L71900 26965" /> 
<path d="M71900 26965 L72250 26965" /> 
<path d="M72250 26965 L72250 27515" /> 
<path d="M71900 27515 L72250 27515" /> 
<path d="M28615 20205 L28615 20755" /> 
<path d="M28615 20755 L28265 20755" /> 
<path d="M28265 20755 L28265 20205" /> 
<path d="M28615 20205 L28265 20205" /> 
<path d="M27865 20205 L27865 20755" /> 
<path d="M27865 20755 L27515 20755" /> 
<path d="M27515 20755 L27515 20205" /> 
<path d="M27865 20205 L27515 20205" /> 
<path d="M66805 28770 L66255 28770" /> 
<path d="M66255 28770 L66255 28420" /> 
<path d="M66255 28420 L66805 28420" /> 
<path d="M66805 28770 L66805 28420" /> 
<path d="M66805 28020 L66255 28020" /> 
<path d="M66255 28020 L66255 27670" /> 
<path d="M66255 27670 L66805 27670" /> 
<path d="M66805 28020 L66805 27670" /> 
<path d="M66255 25270 L66805 25270" /> 
<path d="M66805 25270 L66805 25620" /> 
<path d="M66805 25620 L66255 25620" /> 
<path d="M66255 25270 L66255 25620" /> 
<path d="M66255 26020 L66805 26020" /> 
<path d="M66805 26020 L66805 26370" /> 
<path d="M66805 26370 L66255 26370" /> 
<path d="M66255 26020 L66255 26370" /> 
<path d="M66275 21620 L65725 21620" /> 
<path d="M65725 21620 L65725 21270" /> 
<path d="M65725 21270 L66275 21270" /> 
<path d="M66275 21620 L66275 21270" /> 
<path d="M66275 20870 L65725 20870" /> 
<path d="M65725 20870 L65725 20520" /> 
<path d="M65725 20520 L66275 20520" /> 
<path d="M66275 20870 L66275 20520" /> 
<path d="M65525 27490 L64975 27490" /> 
<path d="M64975 27490 L64975 27140" /> 
<path d="M64975 27140 L65525 27140" /> 
<path d="M65525 27490 L65525 27140" /> 
<path d="M65525 26740 L64975 26740" /> 
<path d="M64975 26740 L64975 26390" /> 
<path d="M64975 26390 L65525 26390" /> 
<path d="M65525 26740 L65525 26390" /> 
<path d="M19750 31259 L19750 30079" /> 
<path d="M19750 30079 L20350 30079" /> 
<path d="M20350 30079 L20350 31259" /> 
<path d="M19750 31259 L20350 31259" /> 
<path d="M16750 31259 L16750 30079" /> 
<path d="M16750 30079 L17350 30079" /> 
<path d="M17350 30079 L17350 31259" /> 
<path d="M16750 31259 L17350 31259" /> 
<path d="M17750 31259 L17750 30079" /> 
<path d="M17750 30079 L18350 30079" /> 
<path d="M18350 30079 L18350 31259" /> 
<path d="M17750 31259 L18350 31259" /> 
<path d="M18750 31259 L18750 30079" /> 
<path d="M18750 30079 L19350 30079" /> 
<path d="M19350 30079 L19350 31259" /> 
<path d="M18750 31259 L19350 31259" /> 
<path d="M16750 27321 L16750 26141" /> 
<path d="M16750 26141 L17350 26141" /> 
<path d="M17350 26141 L17350 27321" /> 
<path d="M16750 27321 L17350 27321" /> 
<path d="M17750 27321 L17750 26141" /> 
<path d="M17750 26141 L18350 26141" /> 
<path d="M18350 26141 L18350 27321" /> 
<path d="M17750 27321 L18350 27321" /> 
<path d="M18750 27321 L18750 26141" /> 
<path d="M18750 26141 L19350 26141" /> 
<path d="M19350 26141 L19350 27321" /> 
<path d="M18750 27321 L19350 27321" /> 
<path d="M19750 27321 L19750 26141" /> 
<path d="M19750 26141 L20350 26141" /> 
<path d="M20350 26141 L20350 27321" /> 
<path d="M19750 27321 L20350 27321" /> 
<path d="M62892 62222 L62892 62378" /> 
<path d="M62892 62378 L62106 62378" /> 
<path d="M62106 62378 L62106 62222" /> 
<path d="M62892 62222 L62106 62222" /> 
<path d="M62892 61722 L62892 61878" /> 
<path d="M62892 61878 L62106 61878" /> 
<path d="M62106 61878 L62106 61722" /> 
<path d="M62892 61722 L62106 61722" /> 
<path d="M62892 61222 L62892 61378" /> 
<path d="M62892 61378 L62106 61378" /> 
<path d="M62106 61378 L62106 61222" /> 
<path d="M62892 61222 L62106 61222" /> 
<path d="M62892 60722 L62892 60878" /> 
<path d="M62892 60878 L62106 60878" /> 
<path d="M62106 60878 L62106 60722" /> 
<path d="M62892 60722 L62106 60722" /> 
<path d="M60892 60702 L60892 60898" /> 
<path d="M60892 60898 L60106 60898" /> 
<path d="M60106 60898 L60106 60702" /> 
<path d="M60892 60702 L60106 60702" /> 
<path d="M60892 61222 L60892 61378" /> 
<path d="M60892 61378 L60106 61378" /> 
<path d="M60106 61378 L60106 61222" /> 
<path d="M60892 61222 L60106 61222" /> 
<path d="M60892 61722 L60892 61878" /> 
<path d="M60892 61878 L60106 61878" /> 
<path d="M60106 61878 L60106 61722" /> 
<path d="M60892 61722 L60106 61722" /> 
<path d="M60892 62222 L60892 62378" /> 
<path d="M60892 62378 L60106 62378" /> 
<path d="M60106 62378 L60106 62222" /> 
<path d="M60892 62222 L60106 62222" /> 
<path d="M71537 23528 L71419 23528" /> 
<path d="M71419 23528 L71419 23056" /> 
<path d="M71419 23056 L71537 23056" /> 
<path d="M71537 23528 L71537 23056" /> 
<path d="M71734 23528 L71616 23528" /> 
<path d="M71616 23528 L71616 23056" /> 
<path d="M71616 23056 L71734 23056" /> 
<path d="M71734 23528 L71734 23056" /> 
<path d="M71931 23528 L71813 23528" /> 
<path d="M71813 23528 L71813 23056" /> 
<path d="M71813 23056 L71931 23056" /> 
<path d="M71931 23528 L71931 23056" /> 
<path d="M72127 23528 L72009 23528" /> 
<path d="M72009 23528 L72009 23056" /> 
<path d="M72009 23056 L72127 23056" /> 
<path d="M72127 23528 L72127 23056" /> 
<path d="M72324 23528 L72206 23528" /> 
<path d="M72206 23528 L72206 23056" /> 
<path d="M72206 23056 L72324 23056" /> 
<path d="M72324 23528 L72324 23056" /> 
<path d="M72521 23528 L72403 23528" /> 
<path d="M72403 23528 L72403 23056" /> 
<path d="M72403 23056 L72521 23056" /> 
<path d="M72521 23528 L72521 23056" /> 
<path d="M72717 23528 L72599 23528" /> 
<path d="M72599 23528 L72599 23056" /> 
<path d="M72599 23056 L72717 23056" /> 
<path d="M72717 23528 L72717 23056" /> 
<path d="M72914 23528 L72796 23528" /> 
<path d="M72796 23528 L72796 23056" /> 
<path d="M72796 23056 L72914 23056" /> 
<path d="M72914 23528 L72914 23056" /> 
<path d="M73111 23528 L72993 23528" /> 
<path d="M72993 23528 L72993 23056" /> 
<path d="M72993 23056 L73111 23056" /> 
<path d="M73111 23528 L73111 23056" /> 
<path d="M73307 23528 L73189 23528" /> 
<path d="M73189 23528 L73189 23056" /> 
<path d="M73189 23056 L73307 23056" /> 
<path d="M73307 23528 L73307 23056" /> 
<path d="M73504 23528 L73386 23528" /> 
<path d="M73386 23528 L73386 23056" /> 
<path d="M73386 23056 L73504 23056" /> 
<path d="M73504 23528 L73504 23056" /> 
<path d="M73701 23528 L73583 23528" /> 
<path d="M73583 23528 L73583 23056" /> 
<path d="M73583 23056 L73701 23056" /> 
<path d="M73701 23528 L73701 23056" /> 
<path d="M74488 22741 L74016 22741" /> 
<path d="M74016 22741 L74016 22623" /> 
<path d="M74016 22623 L74488 22623" /> 
<path d="M74488 22741 L74488 22623" /> 
<path d="M74488 22544 L74016 22544" /> 
<path d="M74016 22544 L74016 22426" /> 
<path d="M74016 22426 L74488 22426" /> 
<path d="M74488 22544 L74488 22426" /> 
<path d="M74488 22347 L74016 22347" /> 
<path d="M74016 22347 L74016 22229" /> 
<path d="M74016 22229 L74488 22229" /> 
<path d="M74488 22347 L74488 22229" /> 
<path d="M74488 22151 L74016 22151" /> 
<path d="M74016 22151 L74016 22033" /> 
<path d="M74016 22033 L74488 22033" /> 
<path d="M74488 22151 L74488 22033" /> 
<path d="M74488 21954 L74016 21954" /> 
<path d="M74016 21954 L74016 21836" /> 
<path d="M74016 21836 L74488 21836" /> 
<path d="M74488 21954 L74488 21836" /> 
<path d="M74488 21757 L74016 21757" /> 
<path d="M74016 21757 L74016 21639" /> 
<path d="M74016 21639 L74488 21639" /> 
<path d="M74488 21757 L74488 21639" /> 
<path d="M74488 21561 L74016 21561" /> 
<path d="M74016 21561 L74016 21443" /> 
<path d="M74016 21443 L74488 21443" /> 
<path d="M74488 21561 L74488 21443" /> 
<path d="M74488 21364 L74016 21364" /> 
<path d="M74016 21364 L74016 21246" /> 
<path d="M74016 21246 L74488 21246" /> 
<path d="M74488 21364 L74488 21246" /> 
<path d="M74488 21167 L74016 21167" /> 
<path d="M74016 21167 L74016 21049" /> 
<path d="M74016 21049 L74488 21049" /> 
<path d="M74488 21167 L74488 21049" /> 
<path d="M74488 20971 L74016 20971" /> 
<path d="M74016 20971 L74016 20853" /> 
<path d="M74016 20853 L74488 20853" /> 
<path d="M74488 20971 L74488 20853" /> 
<path d="M74488 20774 L74016 20774" /> 
<path d="M74016 20774 L74016 20656" /> 
<path d="M74016 20656 L74488 20656" /> 
<path d="M74488 20774 L74488 20656" /> 
<path d="M74488 20577 L74016 20577" /> 
<path d="M74016 20577 L74016 20459" /> 
<path d="M74016 20459 L74488 20459" /> 
<path d="M74488 20577 L74488 20459" /> 
<path d="M73701 20144 L73583 20144" /> 
<path d="M73583 20144 L73583 19672" /> 
<path d="M73583 19672 L73701 19672" /> 
<path d="M73701 20144 L73701 19672" /> 
<path d="M73504 20144 L73386 20144" /> 
<path d="M73386 20144 L73386 19672" /> 
<path d="M73386 19672 L73504 19672" /> 
<path d="M73504 20144 L73504 19672" /> 
<path d="M73307 20144 L73189 20144" /> 
<path d="M73189 20144 L73189 19672" /> 
<path d="M73189 19672 L73307 19672" /> 
<path d="M73307 20144 L73307 19672" /> 
<path d="M73111 20144 L72993 20144" /> 
<path d="M72993 20144 L72993 19672" /> 
<path d="M72993 19672 L73111 19672" /> 
<path d="M73111 20144 L73111 19672" /> 
<path d="M72914 20144 L72796 20144" /> 
<path d="M72796 20144 L72796 19672" /> 
<path d="M72796 19672 L72914 19672" /> 
<path d="M72914 20144 L72914 19672" /> 
<path d="M72717 20144 L72599 20144" /> 
<path d="M72599 20144 L72599 19672" /> 
<path d="M72599 19672 L72717 19672" /> 
<path d="M72717 20144 L72717 19672" /> 
<path d="M72521 20144 L72403 20144" /> 
<path d="M72403 20144 L72403 19672" /> 
<path d="M72403 19672 L72521 19672" /> 
<path d="M72521 20144 L72521 19672" /> 
<path d="M72324 20144 L72206 20144" /> 
<path d="M72206 20144 L72206 19672" /> 
<path d="M72206 19672 L72324 19672" /> 
<path d="M72324 20144 L72324 19672" /> 
<path d="M72127 20144 L72009 20144" /> 
<path d="M72009 20144 L72009 19672" /> 
<path d="M72009 19672 L72127 19672" /> 
<path d="M72127 20144 L72127 19672" /> 
<path d="M71931 20144 L71813 20144" /> 
<path d="M71813 20144 L71813 19672" /> 
<path d="M71813 19672 L71931 19672" /> 
<path d="M71931 20144 L71931 19672" /> 
<path d="M71734 20144 L71616 20144" /> 
<path d="M71616 20144 L71616 19672" /> 
<path d="M71616 19672 L71734 19672" /> 
<path d="M71734 20144 L71734 19672" /> 
<path d="M71537 20144 L71419 20144" /> 
<path d="M71419 20144 L71419 19672" /> 
<path d="M71419 19672 L71537 19672" /> 
<path d="M71537 20144 L71537 19672" /> 
<path d="M71104 20577 L70632 20577" /> 
<path d="M70632 20577 L70632 20459" /> 
<path d="M70632 20459 L71104 20459" /> 
<path d="M71104 20577 L71104 20459" /> 
<path d="M71104 20774 L70632 20774" /> 
<path d="M70632 20774 L70632 20656" /> 
<path d="M70632 20656 L71104 20656" /> 
<path d="M71104 20774 L71104 20656" /> 
<path d="M71104 20971 L70632 20971" /> 
<path d="M70632 20971 L70632 20853" /> 
<path d="M70632 20853 L71104 20853" /> 
<path d="M71104 20971 L71104 20853" /> 
<path d="M71104 21167 L70632 21167" /> 
<path d="M70632 21167 L70632 21049" /> 
<path d="M70632 21049 L71104 21049" /> 
<path d="M71104 21167 L71104 21049" /> 
<path d="M71104 21364 L70632 21364" /> 
<path d="M70632 21364 L70632 21246" /> 
<path d="M70632 21246 L71104 21246" /> 
<path d="M71104 21364 L71104 21246" /> 
<path d="M71104 21561 L70632 21561" /> 
<path d="M70632 21561 L70632 21443" /> 
<path d="M70632 21443 L71104 21443" /> 
<path d="M71104 21561 L71104 21443" /> 
<path d="M71104 21757 L70632 21757" /> 
<path d="M70632 21757 L70632 21639" /> 
<path d="M70632 21639 L71104 21639" /> 
<path d="M71104 21757 L71104 21639" /> 
<path d="M71104 21954 L70632 21954" /> 
<path d="M70632 21954 L70632 21836" /> 
<path d="M70632 21836 L71104 21836" /> 
<path d="M71104 21954 L71104 21836" /> 
<path d="M71104 22151 L70632 22151" /> 
<path d="M70632 22151 L70632 22033" /> 
<path d="M70632 22033 L71104 22033" /> 
<path d="M71104 22151 L71104 22033" /> 
<path d="M71104 22347 L70632 22347" /> 
<path d="M70632 22347 L70632 22229" /> 
<path d="M70632 22229 L71104 22229" /> 
<path d="M71104 22347 L71104 22229" /> 
<path d="M71104 22544 L70632 22544" /> 
<path d="M70632 22544 L70632 22426" /> 
<path d="M70632 22426 L71104 22426" /> 
<path d="M71104 22544 L71104 22426" /> 
<path d="M71104 22741 L70632 22741" /> 
<path d="M70632 22741 L70632 22623" /> 
<path d="M70632 22623 L71104 22623" /> 
<path d="M71104 22741 L71104 22623" /> 
<path d="M26780 19360 L26780 18100" /> 
<path d="M26780 18100 L27370 18100" /> 
<path d="M27370 18100 L27370 19360" /> 
<path d="M26780 19360 L27370 19360" /> 
<path d="M28760 19360 L28760 18100" /> 
<path d="M28760 18100 L29350 18100" /> 
<path d="M29350 18100 L29350 19360" /> 
<path d="M28760 19360 L29350 19360" /> 
<path d="M25900 16935 L25900 12605" /> 
<path d="M25900 12605 L30230 12605" /> 
<path d="M30230 12605 L30230 16935" /> 
<path d="M25900 16935 L30230 16935" /> 
<path d="M27770 19360 L27770 18100" /> 
<path d="M27770 18100 L28360 18100" /> 
<path d="M28360 18100 L28360 19360" /> 
<path d="M27770 19360 L28360 19360" /> 
<path d="M79160 32770 L79160 34030" /> 
<path d="M79160 34030 L78570 34030" /> 
<path d="M78570 34030 L78570 32770" /> 
<path d="M79160 32770 L78570 32770" /> 
<path d="M77180 32770 L77180 34030" /> 
<path d="M77180 34030 L76590 34030" /> 
<path d="M76590 34030 L76590 32770" /> 
<path d="M77180 32770 L76590 32770" /> 
<path d="M80040 35195 L80040 39525" /> 
<path d="M80040 39525 L75710 39525" /> 
<path d="M75710 39525 L75710 35195" /> 
<path d="M80040 35195 L75710 35195" /> 
<path d="M53540 19330 L53540 18070" /> 
<path d="M53540 18070 L54130 18070" /> 
<path d="M54130 18070 L54130 19330" /> 
<path d="M53540 19330 L54130 19330" /> 
<path d="M55520 19330 L55520 18070" /> 
<path d="M55520 18070 L56110 18070" /> 
<path d="M56110 18070 L56110 19330" /> 
<path d="M55520 19330 L56110 19330" /> 
<path d="M52660 16905 L52660 12575" /> 
<path d="M52660 12575 L56990 12575" /> 
<path d="M56990 12575 L56990 16905" /> 
<path d="M52660 16905 L56990 16905" /> 
<path d="M59915 19330 L59915 18070" /> 
<path d="M59915 18070 L60505 18070" /> 
<path d="M60505 18070 L60505 19330" /> 
<path d="M59915 19330 L60505 19330" /> 
<path d="M61895 19330 L61895 18070" /> 
<path d="M61895 18070 L62485 18070" /> 
<path d="M62485 18070 L62485 19330" /> 
<path d="M61895 19330 L62485 19330" /> 
<path d="M59035 16905 L59035 12575" /> 
<path d="M59035 12575 L63365 12575" /> 
<path d="M63365 12575 L63365 16905" /> 
<path d="M59035 16905 L63365 16905" /> 
<path d="M66140 19330 L66140 18070" /> 
<path d="M66140 18070 L66730 18070" /> 
<path d="M66730 18070 L66730 19330" /> 
<path d="M66140 19330 L66730 19330" /> 
<path d="M68120 19330 L68120 18070" /> 
<path d="M68120 18070 L68710 18070" /> 
<path d="M68710 18070 L68710 19330" /> 
<path d="M68120 19330 L68710 19330" /> 
<path d="M65260 16905 L65260 12575" /> 
<path d="M65260 12575 L69590 12575" /> 
<path d="M69590 12575 L69590 16905" /> 
<path d="M65260 16905 L69590 16905" /> 
<path d="M68160 24265 L68750 24265" /> 
<path d="M68750 24265 L68750 25051" /> 
<path d="M68750 25051 L68160 25051" /> 
<path d="M68160 24265 L68160 25051" /> 
<path d="M68160 28989 L68750 28989" /> 
<path d="M68750 28989 L68750 29775" /> 
<path d="M68750 29775 L68160 29775" /> 
<path d="M68160 28989 L68160 29775" /> 
<path d="M29811 38665 L29811 37485" /> 
<path d="M29811 37485 L30223 37485" /> 
<path d="M30223 37485 L30223 38665" /> 
<path d="M29811 38665 L30223 38665" /> 
<path d="M29319 38665 L29319 37485" /> 
<path d="M29319 37485 L29731 37485" /> 
<path d="M29731 37485 L29731 38665" /> 
<path d="M29319 38665 L29731 38665" /> 
<path d="M28827 38665 L28827 37485" /> 
<path d="M28827 37485 L29239 37485" /> 
<path d="M29239 37485 L29239 38665" /> 
<path d="M28827 38665 L29239 38665" /> 
<path d="M28335 38665 L28335 37485" /> 
<path d="M28335 37485 L28747 37485" /> 
<path d="M28747 37485 L28747 38665" /> 
<path d="M28335 38665 L28747 38665" /> 
<path d="M40311 38665 L40311 37485" /> 
<path d="M40311 37485 L40723 37485" /> 
<path d="M40723 37485 L40723 38665" /> 
<path d="M40311 38665 L40723 38665" /> 
<path d="M39819 38665 L39819 37485" /> 
<path d="M39819 37485 L40231 37485" /> 
<path d="M40231 37485 L40231 38665" /> 
<path d="M39819 38665 L40231 38665" /> 
<path d="M39327 38665 L39327 37485" /> 
<path d="M39327 37485 L39739 37485" /> 
<path d="M39739 37485 L39739 38665" /> 
<path d="M39327 38665 L39739 38665" /> 
<path d="M38835 38665 L38835 37485" /> 
<path d="M38835 37485 L39247 37485" /> 
<path d="M39247 37485 L39247 38665" /> 
<path d="M38835 38665 L39247 38665" /> 
<path d="M47011 37915 L47011 36735" /> 
<path d="M47011 36735 L47423 36735" /> 
<path d="M47423 36735 L47423 37915" /> 
<path d="M47011 37915 L47423 37915" /> 
<path d="M46519 37915 L46519 36735" /> 
<path d="M46519 36735 L46931 36735" /> 
<path d="M46931 36735 L46931 37915" /> 
<path d="M46519 37915 L46931 37915" /> 
<path d="M46027 37915 L46027 36735" /> 
<path d="M46027 36735 L46439 36735" /> 
<path d="M46439 36735 L46439 37915" /> 
<path d="M46027 37915 L46439 37915" /> 
<path d="M45535 37915 L45535 36735" /> 
<path d="M45535 36735 L45947 36735" /> 
<path d="M45947 36735 L45947 37915" /> 
<path d="M45535 37915 L45947 37915" /> 
<path d="M36811 38665 L36811 37485" /> 
<path d="M36811 37485 L37223 37485" /> 
<path d="M37223 37485 L37223 38665" /> 
<path d="M36811 38665 L37223 38665" /> 
<path d="M36319 38665 L36319 37485" /> 
<path d="M36319 37485 L36731 37485" /> 
<path d="M36731 37485 L36731 38665" /> 
<path d="M36319 38665 L36731 38665" /> 
<path d="M35827 38665 L35827 37485" /> 
<path d="M35827 37485 L36239 37485" /> 
<path d="M36239 37485 L36239 38665" /> 
<path d="M35827 38665 L36239 38665" /> 
<path d="M35335 38665 L35335 37485" /> 
<path d="M35335 37485 L35747 37485" /> 
<path d="M35747 37485 L35747 38665" /> 
<path d="M35335 38665 L35747 38665" /> 
<path d="M68436 40640 L68436 39460" /> 
<path d="M68436 39460 L68848 39460" /> 
<path d="M68848 39460 L68848 40640" /> 
<path d="M68436 40640 L68848 40640" /> 
<path d="M67944 40640 L67944 39460" /> 
<path d="M67944 39460 L68356 39460" /> 
<path d="M68356 39460 L68356 40640" /> 
<path d="M67944 40640 L68356 40640" /> 
<path d="M67452 40640 L67452 39460" /> 
<path d="M67452 39460 L67864 39460" /> 
<path d="M67864 39460 L67864 40640" /> 
<path d="M67452 40640 L67864 40640" /> 
<path d="M66960 40640 L66960 39460" /> 
<path d="M66960 39460 L67372 39460" /> 
<path d="M67372 39460 L67372 40640" /> 
<path d="M66960 40640 L67372 40640" /> 
<path d="M54511 40915 L54511 39735" /> 
<path d="M54511 39735 L54923 39735" /> 
<path d="M54923 39735 L54923 40915" /> 
<path d="M54511 40915 L54923 40915" /> 
<path d="M54019 40915 L54019 39735" /> 
<path d="M54019 39735 L54431 39735" /> 
<path d="M54431 39735 L54431 40915" /> 
<path d="M54019 40915 L54431 40915" /> 
<path d="M53527 40915 L53527 39735" /> 
<path d="M53527 39735 L53939 39735" /> 
<path d="M53939 39735 L53939 40915" /> 
<path d="M53527 40915 L53939 40915" /> 
<path d="M53035 40915 L53035 39735" /> 
<path d="M53035 39735 L53447 39735" /> 
<path d="M53447 39735 L53447 40915" /> 
<path d="M53035 40915 L53447 40915" /> 
<path d="M33311 38665 L33311 37485" /> 
<path d="M33311 37485 L33723 37485" /> 
<path d="M33723 37485 L33723 38665" /> 
<path d="M33311 38665 L33723 38665" /> 
<path d="M32819 38665 L32819 37485" /> 
<path d="M32819 37485 L33231 37485" /> 
<path d="M33231 37485 L33231 38665" /> 
<path d="M32819 38665 L33231 38665" /> 
<path d="M32327 38665 L32327 37485" /> 
<path d="M32327 37485 L32739 37485" /> 
<path d="M32739 37485 L32739 38665" /> 
<path d="M32327 38665 L32739 38665" /> 
<path d="M31835 38665 L31835 37485" /> 
<path d="M31835 37485 L32247 37485" /> 
<path d="M32247 37485 L32247 38665" /> 
<path d="M31835 38665 L32247 38665" /> 
<path d="M72936 42890 L72936 41710" /> 
<path d="M72936 41710 L73348 41710" /> 
<path d="M73348 41710 L73348 42890" /> 
<path d="M72936 42890 L73348 42890" /> 
<path d="M72444 42890 L72444 41710" /> 
<path d="M72444 41710 L72856 41710" /> 
<path d="M72856 41710 L72856 42890" /> 
<path d="M72444 42890 L72856 42890" /> 
<path d="M71952 42890 L71952 41710" /> 
<path d="M71952 41710 L72364 41710" /> 
<path d="M72364 41710 L72364 42890" /> 
<path d="M71952 42890 L72364 42890" /> 
<path d="M71460 42890 L71460 41710" /> 
<path d="M71460 41710 L71872 41710" /> 
<path d="M71872 41710 L71872 42890" /> 
<path d="M71460 42890 L71872 42890" /> 
<path d="M50011 40915 L50011 39735" /> 
<path d="M50011 39735 L50423 39735" /> 
<path d="M50423 39735 L50423 40915" /> 
<path d="M50011 40915 L50423 40915" /> 
<path d="M49519 40915 L49519 39735" /> 
<path d="M49519 39735 L49931 39735" /> 
<path d="M49931 39735 L49931 40915" /> 
<path d="M49519 40915 L49931 40915" /> 
<path d="M49027 40915 L49027 39735" /> 
<path d="M49027 39735 L49439 39735" /> 
<path d="M49439 39735 L49439 40915" /> 
<path d="M49027 40915 L49439 40915" /> 
<path d="M48535 40915 L48535 39735" /> 
<path d="M48535 39735 L48947 39735" /> 
<path d="M48947 39735 L48947 40915" /> 
<path d="M48535 40915 L48947 40915" /> 
<path d="M65936 37390 L65936 36210" /> 
<path d="M65936 36210 L66348 36210" /> 
<path d="M66348 36210 L66348 37390" /> 
<path d="M65936 37390 L66348 37390" /> 
<path d="M65444 37390 L65444 36210" /> 
<path d="M65444 36210 L65856 36210" /> 
<path d="M65856 36210 L65856 37390" /> 
<path d="M65444 37390 L65856 37390" /> 
<path d="M64952 37390 L64952 36210" /> 
<path d="M64952 36210 L65364 36210" /> 
<path d="M65364 36210 L65364 37390" /> 
<path d="M64952 37390 L65364 37390" /> 
<path d="M64460 37390 L64460 36210" /> 
<path d="M64460 36210 L64872 36210" /> 
<path d="M64872 36210 L64872 37390" /> 
<path d="M64460 37390 L64872 37390" /> 
<path d="M64686 42890 L64686 41710" /> 
<path d="M64686 41710 L65098 41710" /> 
<path d="M65098 41710 L65098 42890" /> 
<path d="M64686 42890 L65098 42890" /> 
<path d="M64194 42890 L64194 41710" /> 
<path d="M64194 41710 L64606 41710" /> 
<path d="M64606 41710 L64606 42890" /> 
<path d="M64194 42890 L64606 42890" /> 
<path d="M63702 42890 L63702 41710" /> 
<path d="M63702 41710 L64114 41710" /> 
<path d="M64114 41710 L64114 42890" /> 
<path d="M63702 42890 L64114 42890" /> 
<path d="M63210 42890 L63210 41710" /> 
<path d="M63210 41710 L63622 41710" /> 
<path d="M63622 41710 L63622 42890" /> 
<path d="M63210 42890 L63622 42890" /> 
<path d="M57511 43915 L57511 42735" /> 
<path d="M57511 42735 L57923 42735" /> 
<path d="M57923 42735 L57923 43915" /> 
<path d="M57511 43915 L57923 43915" /> 
<path d="M57019 43915 L57019 42735" /> 
<path d="M57019 42735 L57431 42735" /> 
<path d="M57431 42735 L57431 43915" /> 
<path d="M57019 43915 L57431 43915" /> 
<path d="M56527 43915 L56527 42735" /> 
<path d="M56527 42735 L56939 42735" /> 
<path d="M56939 42735 L56939 43915" /> 
<path d="M56527 43915 L56939 43915" /> 
<path d="M56035 43915 L56035 42735" /> 
<path d="M56035 42735 L56447 42735" /> 
<path d="M56447 42735 L56447 43915" /> 
<path d="M56035 43915 L56447 43915" /> 
<path d="M39311 43165 L39311 41985" /> 
<path d="M39311 41985 L39723 41985" /> 
<path d="M39723 41985 L39723 43165" /> 
<path d="M39311 43165 L39723 43165" /> 
<path d="M38819 43165 L38819 41985" /> 
<path d="M38819 41985 L39231 41985" /> 
<path d="M39231 41985 L39231 43165" /> 
<path d="M38819 43165 L39231 43165" /> 
<path d="M38327 43165 L38327 41985" /> 
<path d="M38327 41985 L38739 41985" /> 
<path d="M38739 41985 L38739 43165" /> 
<path d="M38327 43165 L38739 43165" /> 
<path d="M37835 43165 L37835 41985" /> 
<path d="M37835 41985 L38247 41985" /> 
<path d="M38247 41985 L38247 43165" /> 
<path d="M37835 43165 L38247 43165" /> 
<path d="M72936 47890 L72936 46710" /> 
<path d="M72936 46710 L73348 46710" /> 
<path d="M73348 46710 L73348 47890" /> 
<path d="M72936 47890 L73348 47890" /> 
<path d="M72444 47890 L72444 46710" /> 
<path d="M72444 46710 L72856 46710" /> 
<path d="M72856 46710 L72856 47890" /> 
<path d="M72444 47890 L72856 47890" /> 
<path d="M71952 47890 L71952 46710" /> 
<path d="M71952 46710 L72364 46710" /> 
<path d="M72364 46710 L72364 47890" /> 
<path d="M71952 47890 L72364 47890" /> 
<path d="M71460 47890 L71460 46710" /> 
<path d="M71460 46710 L71872 46710" /> 
<path d="M71872 46710 L71872 47890" /> 
<path d="M71460 47890 L71872 47890" /> 
<path d="M47011 43915 L47011 42735" /> 
<path d="M47011 42735 L47423 42735" /> 
<path d="M47423 42735 L47423 43915" /> 
<path d="M47011 43915 L47423 43915" /> 
<path d="M46519 43915 L46519 42735" /> 
<path d="M46519 42735 L46931 42735" /> 
<path d="M46931 42735 L46931 43915" /> 
<path d="M46519 43915 L46931 43915" /> 
<path d="M46027 43915 L46027 42735" /> 
<path d="M46027 42735 L46439 42735" /> 
<path d="M46439 42735 L46439 43915" /> 
<path d="M46027 43915 L46439 43915" /> 
<path d="M45535 43915 L45535 42735" /> 
<path d="M45535 42735 L45947 42735" /> 
<path d="M45947 42735 L45947 43915" /> 
<path d="M45535 43915 L45947 43915" /> 
<path d="M30811 43165 L30811 41985" /> 
<path d="M30811 41985 L31223 41985" /> 
<path d="M31223 41985 L31223 43165" /> 
<path d="M30811 43165 L31223 43165" /> 
<path d="M30319 43165 L30319 41985" /> 
<path d="M30319 41985 L30731 41985" /> 
<path d="M30731 41985 L30731 43165" /> 
<path d="M30319 43165 L30731 43165" /> 
<path d="M29827 43165 L29827 41985" /> 
<path d="M29827 41985 L30239 41985" /> 
<path d="M30239 41985 L30239 43165" /> 
<path d="M29827 43165 L30239 43165" /> 
<path d="M29335 43165 L29335 41985" /> 
<path d="M29335 41985 L29747 41985" /> 
<path d="M29747 41985 L29747 43165" /> 
<path d="M29335 43165 L29747 43165" /> 
<path d="M69186 47890 L69186 46710" /> 
<path d="M69186 46710 L69598 46710" /> 
<path d="M69598 46710 L69598 47890" /> 
<path d="M69186 47890 L69598 47890" /> 
<path d="M68694 47890 L68694 46710" /> 
<path d="M68694 46710 L69106 46710" /> 
<path d="M69106 46710 L69106 47890" /> 
<path d="M68694 47890 L69106 47890" /> 
<path d="M68202 47890 L68202 46710" /> 
<path d="M68202 46710 L68614 46710" /> 
<path d="M68614 46710 L68614 47890" /> 
<path d="M68202 47890 L68614 47890" /> 
<path d="M67710 47890 L67710 46710" /> 
<path d="M67710 46710 L68122 46710" /> 
<path d="M68122 46710 L68122 47890" /> 
<path d="M67710 47890 L68122 47890" /> 
<path d="M57511 47915 L57511 46735" /> 
<path d="M57511 46735 L57923 46735" /> 
<path d="M57923 46735 L57923 47915" /> 
<path d="M57511 47915 L57923 47915" /> 
<path d="M57019 47915 L57019 46735" /> 
<path d="M57019 46735 L57431 46735" /> 
<path d="M57431 46735 L57431 47915" /> 
<path d="M57019 47915 L57431 47915" /> 
<path d="M56527 47915 L56527 46735" /> 
<path d="M56527 46735 L56939 46735" /> 
<path d="M56939 46735 L56939 47915" /> 
<path d="M56527 47915 L56939 47915" /> 
<path d="M56035 47915 L56035 46735" /> 
<path d="M56035 46735 L56447 46735" /> 
<path d="M56447 46735 L56447 47915" /> 
<path d="M56035 47915 L56447 47915" /> 
<path d="M72936 38390 L72936 37210" /> 
<path d="M72936 37210 L73348 37210" /> 
<path d="M73348 37210 L73348 38390" /> 
<path d="M72936 38390 L73348 38390" /> 
<path d="M72444 38390 L72444 37210" /> 
<path d="M72444 37210 L72856 37210" /> 
<path d="M72856 37210 L72856 38390" /> 
<path d="M72444 38390 L72856 38390" /> 
<path d="M71952 38390 L71952 37210" /> 
<path d="M71952 37210 L72364 37210" /> 
<path d="M72364 37210 L72364 38390" /> 
<path d="M71952 38390 L72364 38390" /> 
<path d="M71460 38390 L71460 37210" /> 
<path d="M71460 37210 L71872 37210" /> 
<path d="M71872 37210 L71872 38390" /> 
<path d="M71460 38390 L71872 38390" /> 
<path d="M29811 33915 L29811 32735" /> 
<path d="M29811 32735 L30223 32735" /> 
<path d="M30223 32735 L30223 33915" /> 
<path d="M29811 33915 L30223 33915" /> 
<path d="M29319 33915 L29319 32735" /> 
<path d="M29319 32735 L29731 32735" /> 
<path d="M29731 32735 L29731 33915" /> 
<path d="M29319 33915 L29731 33915" /> 
<path d="M28827 33915 L28827 32735" /> 
<path d="M28827 32735 L29239 32735" /> 
<path d="M29239 32735 L29239 33915" /> 
<path d="M28827 33915 L29239 33915" /> 
<path d="M28335 33915 L28335 32735" /> 
<path d="M28335 32735 L28747 32735" /> 
<path d="M28747 32735 L28747 33915" /> 
<path d="M28335 33915 L28747 33915" /> 
<path d="M47011 33915 L47011 32735" /> 
<path d="M47011 32735 L47423 32735" /> 
<path d="M47423 32735 L47423 33915" /> 
<path d="M47011 33915 L47423 33915" /> 
<path d="M46519 33915 L46519 32735" /> 
<path d="M46519 32735 L46931 32735" /> 
<path d="M46931 32735 L46931 33915" /> 
<path d="M46519 33915 L46931 33915" /> 
<path d="M46027 33915 L46027 32735" /> 
<path d="M46027 32735 L46439 32735" /> 
<path d="M46439 32735 L46439 33915" /> 
<path d="M46027 33915 L46439 33915" /> 
<path d="M45535 33915 L45535 32735" /> 
<path d="M45535 32735 L45947 32735" /> 
<path d="M45947 32735 L45947 33915" /> 
<path d="M45535 33915 L45947 33915" /> 
<path d="M63936 33890 L63936 32710" /> 
<path d="M63936 32710 L64348 32710" /> 
<path d="M64348 32710 L64348 33890" /> 
<path d="M63936 33890 L64348 33890" /> 
<path d="M63444 33890 L63444 32710" /> 
<path d="M63444 32710 L63856 32710" /> 
<path d="M63856 32710 L63856 33890" /> 
<path d="M63444 33890 L63856 33890" /> 
<path d="M62952 33890 L62952 32710" /> 
<path d="M62952 32710 L63364 32710" /> 
<path d="M63364 32710 L63364 33890" /> 
<path d="M62952 33890 L63364 33890" /> 
<path d="M62460 33890 L62460 32710" /> 
<path d="M62460 32710 L62872 32710" /> 
<path d="M62872 32710 L62872 33890" /> 
<path d="M62460 33890 L62872 33890" /> 
<path d="M40311 33915 L40311 32735" /> 
<path d="M40311 32735 L40723 32735" /> 
<path d="M40723 32735 L40723 33915" /> 
<path d="M40311 33915 L40723 33915" /> 
<path d="M39819 33915 L39819 32735" /> 
<path d="M39819 32735 L40231 32735" /> 
<path d="M40231 32735 L40231 33915" /> 
<path d="M39819 33915 L40231 33915" /> 
<path d="M39327 33915 L39327 32735" /> 
<path d="M39327 32735 L39739 32735" /> 
<path d="M39739 32735 L39739 33915" /> 
<path d="M39327 33915 L39739 33915" /> 
<path d="M38835 33915 L38835 32735" /> 
<path d="M38835 32735 L39247 32735" /> 
<path d="M39247 32735 L39247 33915" /> 
<path d="M38835 33915 L39247 33915" /> 
<path d="M57511 33915 L57511 32735" /> 
<path d="M57511 32735 L57923 32735" /> 
<path d="M57923 32735 L57923 33915" /> 
<path d="M57511 33915 L57923 33915" /> 
<path d="M57019 33915 L57019 32735" /> 
<path d="M57019 32735 L57431 32735" /> 
<path d="M57431 32735 L57431 33915" /> 
<path d="M57019 33915 L57431 33915" /> 
<path d="M56527 33915 L56527 32735" /> 
<path d="M56527 32735 L56939 32735" /> 
<path d="M56939 32735 L56939 33915" /> 
<path d="M56527 33915 L56939 33915" /> 
<path d="M56035 33915 L56035 32735" /> 
<path d="M56035 32735 L56447 32735" /> 
<path d="M56447 32735 L56447 33915" /> 
<path d="M56035 33915 L56447 33915" /> 
<path d="M72936 33890 L72936 32710" /> 
<path d="M72936 32710 L73348 32710" /> 
<path d="M73348 32710 L73348 33890" /> 
<path d="M72936 33890 L73348 33890" /> 
<path d="M72444 33890 L72444 32710" /> 
<path d="M72444 32710 L72856 32710" /> 
<path d="M72856 32710 L72856 33890" /> 
<path d="M72444 33890 L72856 33890" /> 
<path d="M71952 33890 L71952 32710" /> 
<path d="M71952 32710 L72364 32710" /> 
<path d="M72364 32710 L72364 33890" /> 
<path d="M71952 33890 L72364 33890" /> 
<path d="M71460 33890 L71460 32710" /> 
<path d="M71460 32710 L71872 32710" /> 
<path d="M71872 32710 L71872 33890" /> 
<path d="M71460 33890 L71872 33890" /> 
<path d="M36811 47915 L36811 46735" /> 
<path d="M36811 46735 L37223 46735" /> 
<path d="M37223 46735 L37223 47915" /> 
<path d="M36811 47915 L37223 47915" /> 
<path d="M36319 47915 L36319 46735" /> 
<path d="M36319 46735 L36731 46735" /> 
<path d="M36731 46735 L36731 47915" /> 
<path d="M36319 47915 L36731 47915" /> 
<path d="M35827 47915 L35827 46735" /> 
<path d="M35827 46735 L36239 46735" /> 
<path d="M36239 46735 L36239 47915" /> 
<path d="M35827 47915 L36239 47915" /> 
<path d="M35335 47915 L35335 46735" /> 
<path d="M35335 46735 L35747 46735" /> 
<path d="M35747 46735 L35747 47915" /> 
<path d="M35335 47915 L35747 47915" /> 
<path d="M57511 37915 L57511 36735" /> 
<path d="M57511 36735 L57923 36735" /> 
<path d="M57923 36735 L57923 37915" /> 
<path d="M57511 37915 L57923 37915" /> 
<path d="M57019 37915 L57019 36735" /> 
<path d="M57019 36735 L57431 36735" /> 
<path d="M57431 36735 L57431 37915" /> 
<path d="M57019 37915 L57431 37915" /> 
<path d="M56527 37915 L56527 36735" /> 
<path d="M56527 36735 L56939 36735" /> 
<path d="M56939 36735 L56939 37915" /> 
<path d="M56527 37915 L56939 37915" /> 
<path d="M56035 37915 L56035 36735" /> 
<path d="M56035 36735 L56447 36735" /> 
<path d="M56447 36735 L56447 37915" /> 
<path d="M56035 37915 L56447 37915" /> 
<path d="M65436 47140 L65436 45960" /> 
<path d="M65436 45960 L65848 45960" /> 
<path d="M65848 45960 L65848 47140" /> 
<path d="M65436 47140 L65848 47140" /> 
<path d="M64944 47140 L64944 45960" /> 
<path d="M64944 45960 L65356 45960" /> 
<path d="M65356 45960 L65356 47140" /> 
<path d="M64944 47140 L65356 47140" /> 
<path d="M64452 47140 L64452 45960" /> 
<path d="M64452 45960 L64864 45960" /> 
<path d="M64864 45960 L64864 47140" /> 
<path d="M64452 47140 L64864 47140" /> 
<path d="M63960 47140 L63960 45960" /> 
<path d="M63960 45960 L64372 45960" /> 
<path d="M64372 45960 L64372 47140" /> 
<path d="M63960 47140 L64372 47140" /> 
<path d="M47011 47915 L47011 46735" /> 
<path d="M47011 46735 L47423 46735" /> 
<path d="M47423 46735 L47423 47915" /> 
<path d="M47011 47915 L47423 47915" /> 
<path d="M46519 47915 L46519 46735" /> 
<path d="M46519 46735 L46931 46735" /> 
<path d="M46931 46735 L46931 47915" /> 
<path d="M46519 47915 L46931 47915" /> 
<path d="M46027 47915 L46027 46735" /> 
<path d="M46027 46735 L46439 46735" /> 
<path d="M46439 46735 L46439 47915" /> 
<path d="M46027 47915 L46439 47915" /> 
<path d="M45535 47915 L45535 46735" /> 
<path d="M45535 46735 L45947 46735" /> 
<path d="M45947 46735 L45947 47915" /> 
<path d="M45535 47915 L45947 47915" /> 
<path d="M33311 47915 L33311 46735" /> 
<path d="M33311 46735 L33723 46735" /> 
<path d="M33723 46735 L33723 47915" /> 
<path d="M33311 47915 L33723 47915" /> 
<path d="M32819 47915 L32819 46735" /> 
<path d="M32819 46735 L33231 46735" /> 
<path d="M33231 46735 L33231 47915" /> 
<path d="M32819 47915 L33231 47915" /> 
<path d="M32327 47915 L32327 46735" /> 
<path d="M32327 46735 L32739 46735" /> 
<path d="M32739 46735 L32739 47915" /> 
<path d="M32327 47915 L32739 47915" /> 
<path d="M31835 47915 L31835 46735" /> 
<path d="M31835 46735 L32247 46735" /> 
<path d="M32247 46735 L32247 47915" /> 
<path d="M31835 47915 L32247 47915" /> 
<ellipse cx="16975" cy="48975" rx="354" ry="354"  /> 
<ellipse cx="17975" cy="48975" rx="354" ry="354"  /> 
<ellipse cx="16975" cy="46625" rx="354" ry="354"  /> 
<ellipse cx="17975" cy="46625" rx="354" ry="354"  /> 
<ellipse cx="16975" cy="51325" rx="354" ry="354"  /> 
<ellipse cx="17975" cy="51325" rx="354" ry="354"  /> 
<ellipse cx="16975" cy="44275" rx="354" ry="354"  /> 
<ellipse cx="17975" cy="44275" rx="354" ry="354"  /> 
<ellipse cx="49823" cy="15975" rx="689" ry="689"  /> 
<ellipse cx="74627" cy="15975" rx="689" ry="689"  /> 
<ellipse cx="74627" cy="56075" rx="689" ry="689"  /> 
<ellipse cx="49823" cy="56075" rx="689" ry="689"  /> 
<ellipse cx="22298" cy="15975" rx="689" ry="689"  /> 
<ellipse cx="47102" cy="15975" rx="689" ry="689"  /> 
<ellipse cx="47102" cy="56075" rx="689" ry="689"  /> 
<ellipse cx="22298" cy="56075" rx="689" ry="689"  /> 
<path d="M21230 58700 L21230 57900" /> 
<path d="M21230 57900 L22670 57900" /> 
<path d="M22670 57900 L22670 58700" /> 
<path d="M21230 58700 L22670 58700" /> 
<path d="M21750 61300 L21750 60500" /> 
<path d="M21750 60500 L22150 60500" /> 
<path d="M22150 60500 L22150 61300" /> 
<path d="M21750 61300 L22150 61300" /> 
<path d="M22650 61300 L22650 60500" /> 
<path d="M22650 60500 L23050 60500" /> 
<path d="M23050 60500 L23050 61300" /> 
<path d="M22650 61300 L23050 61300" /> 
<path d="M20850 61300 L20850 60500" /> 
<path d="M20850 60500 L21250 60500" /> 
<path d="M21250 60500 L21250 61300" /> 
<path d="M20850 61300 L21250 61300" /> 
<path d="M24630 58700 L24630 57900" /> 
<path d="M24630 57900 L26070 57900" /> 
<path d="M26070 57900 L26070 58700" /> 
<path d="M24630 58700 L26070 58700" /> 
<path d="M25150 61300 L25150 60500" /> 
<path d="M25150 60500 L25550 60500" /> 
<path d="M25550 60500 L25550 61300" /> 
<path d="M25150 61300 L25550 61300" /> 
<path d="M26050 61300 L26050 60500" /> 
<path d="M26050 60500 L26450 60500" /> 
<path d="M26450 60500 L26450 61300" /> 
<path d="M26050 61300 L26450 61300" /> 
<path d="M24250 61300 L24250 60500" /> 
<path d="M24250 60500 L24650 60500" /> 
<path d="M24650 60500 L24650 61300" /> 
<path d="M24250 61300 L24650 61300" /> 
<path d="M28030 58700 L28030 57900" /> 
<path d="M28030 57900 L29470 57900" /> 
<path d="M29470 57900 L29470 58700" /> 
<path d="M28030 58700 L29470 58700" /> 
<path d="M28550 61300 L28550 60500" /> 
<path d="M28550 60500 L28950 60500" /> 
<path d="M28950 60500 L28950 61300" /> 
<path d="M28550 61300 L28950 61300" /> 
<path d="M29450 61300 L29450 60500" /> 
<path d="M29450 60500 L29850 60500" /> 
<path d="M29850 60500 L29850 61300" /> 
<path d="M29450 61300 L29850 61300" /> 
<path d="M27650 61300 L27650 60500" /> 
<path d="M27650 60500 L28050 60500" /> 
<path d="M28050 60500 L28050 61300" /> 
<path d="M27650 61300 L28050 61300" /> 
<path d="M31430 58700 L31430 57900" /> 
<path d="M31430 57900 L32870 57900" /> 
<path d="M32870 57900 L32870 58700" /> 
<path d="M31430 58700 L32870 58700" /> 
<path d="M31950 61300 L31950 60500" /> 
<path d="M31950 60500 L32350 60500" /> 
<path d="M32350 60500 L32350 61300" /> 
<path d="M31950 61300 L32350 61300" /> 
<path d="M32850 61300 L32850 60500" /> 
<path d="M32850 60500 L33250 60500" /> 
<path d="M33250 60500 L33250 61300" /> 
<path d="M32850 61300 L33250 61300" /> 
<path d="M31050 61300 L31050 60500" /> 
<path d="M31050 60500 L31450 60500" /> 
<path d="M31450 60500 L31450 61300" /> 
<path d="M31050 61300 L31450 61300" /> 
<path d="M34830 58700 L34830 57900" /> 
<path d="M34830 57900 L36270 57900" /> 
<path d="M36270 57900 L36270 58700" /> 
<path d="M34830 58700 L36270 58700" /> 
<path d="M35350 61300 L35350 60500" /> 
<path d="M35350 60500 L35750 60500" /> 
<path d="M35750 60500 L35750 61300" /> 
<path d="M35350 61300 L35750 61300" /> 
<path d="M36250 61300 L36250 60500" /> 
<path d="M36250 60500 L36650 60500" /> 
<path d="M36650 60500 L36650 61300" /> 
<path d="M36250 61300 L36650 61300" /> 
<path d="M34450 61300 L34450 60500" /> 
<path d="M34450 60500 L34850 60500" /> 
<path d="M34850 60500 L34850 61300" /> 
<path d="M34450 61300 L34850 61300" /> 
<path d="M38230 58700 L38230 57900" /> 
<path d="M38230 57900 L39670 57900" /> 
<path d="M39670 57900 L39670 58700" /> 
<path d="M38230 58700 L39670 58700" /> 
<path d="M38750 61300 L38750 60500" /> 
<path d="M38750 60500 L39150 60500" /> 
<path d="M39150 60500 L39150 61300" /> 
<path d="M38750 61300 L39150 61300" /> 
<path d="M39650 61300 L39650 60500" /> 
<path d="M39650 60500 L40050 60500" /> 
<path d="M40050 60500 L40050 61300" /> 
<path d="M39650 61300 L40050 61300" /> 
<path d="M37850 61300 L37850 60500" /> 
<path d="M37850 60500 L38250 60500" /> 
<path d="M38250 60500 L38250 61300" /> 
<path d="M37850 61300 L38250 61300" /> 
<path d="M41630 58700 L41630 57900" /> 
<path d="M41630 57900 L43070 57900" /> 
<path d="M43070 57900 L43070 58700" /> 
<path d="M41630 58700 L43070 58700" /> 
<path d="M42150 61300 L42150 60500" /> 
<path d="M42150 60500 L42550 60500" /> 
<path d="M42550 60500 L42550 61300" /> 
<path d="M42150 61300 L42550 61300" /> 
<path d="M43050 61300 L43050 60500" /> 
<path d="M43050 60500 L43450 60500" /> 
<path d="M43450 60500 L43450 61300" /> 
<path d="M43050 61300 L43450 61300" /> 
<path d="M41250 61300 L41250 60500" /> 
<path d="M41250 60500 L41650 60500" /> 
<path d="M41650 60500 L41650 61300" /> 
<path d="M41250 61300 L41650 61300" /> 
<path d="M45030 58700 L45030 57900" /> 
<path d="M45030 57900 L46470 57900" /> 
<path d="M46470 57900 L46470 58700" /> 
<path d="M45030 58700 L46470 58700" /> 
<path d="M45550 61300 L45550 60500" /> 
<path d="M45550 60500 L45950 60500" /> 
<path d="M45950 60500 L45950 61300" /> 
<path d="M45550 61300 L45950 61300" /> 
<path d="M46450 61300 L46450 60500" /> 
<path d="M46450 60500 L46850 60500" /> 
<path d="M46850 60500 L46850 61300" /> 
<path d="M46450 61300 L46850 61300" /> 
<path d="M44650 61300 L44650 60500" /> 
<path d="M44650 60500 L45050 60500" /> 
<path d="M45050 60500 L45050 61300" /> 
<path d="M44650 61300 L45050 61300" /> 
<path d="M48430 58700 L48430 57900" /> 
<path d="M48430 57900 L49870 57900" /> 
<path d="M49870 57900 L49870 58700" /> 
<path d="M48430 58700 L49870 58700" /> 
<path d="M48950 61300 L48950 60500" /> 
<path d="M48950 60500 L49350 60500" /> 
<path d="M49350 60500 L49350 61300" /> 
<path d="M48950 61300 L49350 61300" /> 
<path d="M49850 61300 L49850 60500" /> 
<path d="M49850 60500 L50250 60500" /> 
<path d="M50250 60500 L50250 61300" /> 
<path d="M49850 61300 L50250 61300" /> 
<path d="M48050 61300 L48050 60500" /> 
<path d="M48050 60500 L48450 60500" /> 
<path d="M48450 60500 L48450 61300" /> 
<path d="M48050 61300 L48450 61300" /> 
<path d="M51830 58700 L51830 57900" /> 
<path d="M51830 57900 L53270 57900" /> 
<path d="M53270 57900 L53270 58700" /> 
<path d="M51830 58700 L53270 58700" /> 
<path d="M52350 61300 L52350 60500" /> 
<path d="M52350 60500 L52750 60500" /> 
<path d="M52750 60500 L52750 61300" /> 
<path d="M52350 61300 L52750 61300" /> 
<path d="M53250 61300 L53250 60500" /> 
<path d="M53250 60500 L53650 60500" /> 
<path d="M53650 60500 L53650 61300" /> 
<path d="M53250 61300 L53650 61300" /> 
<path d="M51450 61300 L51450 60500" /> 
<path d="M51450 60500 L51850 60500" /> 
<path d="M51850 60500 L51850 61300" /> 
<path d="M51450 61300 L51850 61300" /> 
</g> 
</svg> 
